Fraunces-LightOpMin.ufo
<glyph name="at" format="2">
  <advance width="787"/>
  <unicode hex="0040"/>
  <outline>
    <contour>
      <point x="499" y="246" type="curve"/>
      <point x="482" y="272" type="line"/>
      <point x="456" y="277"/>
      <point x="428" y="284"/>
      <point x="394" y="284" type="curve" smooth="yes"/>
      <point x="295" y="284"/>
      <point x="249" y="236"/>
      <point x="249" y="179" type="curve" smooth="yes"/>
      <point x="249" y="121"/>
      <point x="290" y="89"/>
      <point x="351" y="89" type="curve" smooth="yes"/>
      <point x="406" y="89"/>
      <point x="457" y="120"/>
      <point x="497" y="173" type="curve"/>
      <point x="470" y="198" type="line"/>
      <point x="446" y="148"/>
      <point x="406" y="129"/>
      <point x="371" y="129" type="curve" smooth="yes"/>
      <point x="335" y="129"/>
      <point x="309" y="146"/>
      <point x="309" y="183" type="curve" smooth="yes"/>
      <point x="309" y="218"/>
      <point x="331" y="251"/>
      <point x="388" y="251" type="curve" smooth="yes"/>
      <point x="430" y="251"/>
      <point x="466" y="248"/>
    </contour>
    <contour>
      <point x="286" y="364" type="curve" smooth="yes"/>
      <point x="286" y="346"/>
      <point x="297" y="333"/>
      <point x="310" y="333" type="curve" smooth="yes"/>
      <point x="334" y="333"/>
      <point x="348" y="352"/>
      <point x="348" y="379" type="curve" smooth="yes"/>
      <point x="348" y="393" type="line" smooth="yes"/>
      <point x="348" y="421"/>
      <point x="371" y="431"/>
      <point x="404" y="431" type="curve" smooth="yes"/>
      <point x="443" y="431"/>
      <point x="470" y="408"/>
      <point x="470" y="348" type="curve" smooth="yes"/>
      <point x="470" y="203" type="line" smooth="yes"/>
      <point x="470" y="121"/>
      <point x="522" y="89"/>
      <point x="579" y="89" type="curve" smooth="yes"/>
      <point x="662" y="89"/>
      <point x="725" y="166"/>
      <point x="725" y="301" type="curve" smooth="yes"/>
      <point x="725" y="487"/>
      <point x="602" y="614"/>
      <point x="430" y="614" type="curve" smooth="yes"/>
      <point x="213" y="614"/>
      <point x="54" y="468"/>
      <point x="54" y="267" type="curve" smooth="yes"/>
      <point x="54" y="56"/>
      <point x="195" y="-83"/>
      <point x="408" y="-83" type="curve" smooth="yes"/>
      <point x="527" y="-83"/>
      <point x="626" y="-30"/>
      <point x="692" y="35" type="curve" smooth="yes"/>
      <point x="697" y="41"/>
      <point x="702" y="50"/>
      <point x="702" y="57" type="curve" smooth="yes"/>
      <point x="702" y="59"/>
      <point x="700" y="60"/>
      <point x="698" y="60" type="curve" smooth="yes"/>
      <point x="697" y="60"/>
      <point x="691" y="58"/>
      <point x="693" y="60" type="curve" smooth="yes"/>
      <point x="643" y="20"/>
      <point x="544" y="-38"/>
      <point x="409" y="-38" type="curve" smooth="yes"/>
      <point x="229" y="-38"/>
      <point x="100" y="89"/>
      <point x="100" y="267" type="curve" smooth="yes"/>
      <point x="100" y="445"/>
      <point x="237" y="576"/>
      <point x="422" y="576" type="curve" smooth="yes"/>
      <point x="571" y="576"/>
      <point x="681" y="463"/>
      <point x="681" y="300" type="curve" smooth="yes"/>
      <point x="681" y="196"/>
      <point x="647" y="129"/>
      <point x="593" y="129" type="curve" smooth="yes"/>
      <point x="543" y="129"/>
      <point x="515" y="160"/>
      <point x="515" y="210" type="curve" smooth="yes"/>
      <point x="515" y="365" type="line" smooth="yes"/>
      <point x="515" y="429"/>
      <point x="482" y="459"/>
      <point x="436" y="459" type="curve" smooth="yes"/>
      <point x="346" y="459"/>
      <point x="286" y="407"/>
    </contour>
  </outline>
</glyph>
<glyph name="E" format="2">
  <advance width="605"/>
  <unicode hex="0045"/>
  <anchor x="323" y="-84" name="right"/>
  <outline>
    <contour>
      <point x="197" y="346" type="line"/>
      <point x="200" y="315" type="line"/>
      <point x="352" y="315" type="line" smooth="yes"/>
      <point x="401" y="315"/>
      <point x="429" y="293"/>
      <point x="453" y="267" type="curve" smooth="yes"/>
      <point x="459" y="260"/>
      <point x="467" y="254"/>
      <point x="476" y="254" type="curve" smooth="yes"/>
      <point x="478" y="254"/>
      <point x="480" y="256"/>
      <point x="480" y="260" type="curve" smooth="yes"/>
      <point x="480" y="257"/>
      <point x="483" y="253"/>
      <point x="480" y="263" type="curve" smooth="yes"/>
      <point x="444" y="406" type="line" smooth="yes"/>
      <point x="445" y="405"/>
      <point x="441" y="406"/>
      <point x="436" y="406" type="curve" smooth="yes"/>
      <point x="436" y="406"/>
      <point x="433" y="405"/>
      <point x="434" y="408" type="curve" smooth="yes"/>
      <point x="406" y="357"/>
      <point x="377" y="346"/>
      <point x="350" y="346" type="curve" smooth="yes"/>
    </contour>
    <contour>
      <point x="56" y="688" type="curve" smooth="yes"/>
      <point x="56" y="681"/>
      <point x="61" y="682"/>
      <point x="80" y="678" type="curve" smooth="yes"/>
      <point x="115" y="671" type="line" smooth="yes"/>
      <point x="133" y="667"/>
      <point x="146" y="653"/>
      <point x="146" y="633" type="curve" smooth="yes"/>
      <point x="146" y="93" type="line" smooth="yes"/>
      <point x="146" y="58"/>
      <point x="132" y="43"/>
      <point x="103" y="33" type="curve" smooth="yes"/>
      <point x="83" y="24" type="line" smooth="yes"/>
      <point x="66" y="18"/>
      <point x="56" y="18"/>
      <point x="56" y="10" type="curve" smooth="yes"/>
      <point x="56" y="3"/>
      <point x="67" y="0"/>
      <point x="85" y="0" type="curve" smooth="yes"/>
      <point x="440" y="0" type="line" smooth="yes"/>
      <point x="466" y="0"/>
      <point x="483" y="-32"/>
      <point x="508" y="-32" type="curve" smooth="yes"/>
      <point x="518" y="-32"/>
      <point x="526" y="-27"/>
      <point x="524" y="-28" type="curve" smooth="yes"/>
      <point x="550" y="121" type="line" smooth="yes"/>
      <point x="551" y="129"/>
      <point x="553" y="136"/>
      <point x="553" y="140" type="curve" smooth="yes"/>
      <point x="553" y="139"/>
      <point x="552" y="139"/>
      <point x="553" y="139" type="curve" smooth="yes"/>
      <point x="545" y="139"/>
      <point x="537" y="133"/>
      <point x="535" y="133" type="curve" smooth="yes"/>
      <point x="483" y="67"/>
      <point x="474" y="36"/>
      <point x="439" y="36" type="curve" smooth="yes"/>
      <point x="258" y="36" type="line" smooth="yes"/>
      <point x="222" y="36"/>
      <point x="202" y="49"/>
      <point x="202" y="70" type="curve" smooth="yes"/>
      <point x="202" y="659" type="line"/>
      <point x="426" y="659" type="line" smooth="yes"/>
      <point x="444" y="659"/>
      <point x="460" y="643"/>
      <point x="509" y="586" type="curve" smooth="yes"/>
      <point x="520" y="574"/>
      <point x="529" y="562"/>
      <point x="538" y="562" type="curve" smooth="yes"/>
      <point x="540" y="562"/>
      <point x="543" y="566"/>
      <point x="543" y="573" type="curve" smooth="yes"/>
      <point x="543" y="579"/>
      <point x="542" y="589"/>
      <point x="538" y="602" type="curve" smooth="yes"/>
      <point x="506" y="722" type="line" smooth="yes"/>
      <point x="502" y="732"/>
      <point x="501" y="733"/>
      <point x="486" y="733" type="curve" smooth="yes"/>
      <point x="478" y="733"/>
      <point x="471" y="726"/>
      <point x="465" y="715" type="curve" smooth="yes"/>
      <point x="465" y="708"/>
      <point x="455" y="700"/>
      <point x="451" y="700" type="curve" smooth="yes"/>
      <point x="78" y="700" type="line" smooth="yes"/>
      <point x="64" y="700"/>
      <point x="56" y="696"/>
    </contour>
  </outline>
</glyph>
<glyph name="I" format="2">
  <advance width="301"/>
  <unicode hex="0049"/>
  <outline>
    <contour>
      <point x="171" y="75" type="curve" smooth="yes"/>
      <point x="171" y="623" type="line" smooth="yes"/>
      <point x="171" y="653"/>
      <point x="185" y="670"/>
      <point x="213" y="673" type="curve" smooth="yes"/>
      <point x="239" y="676" type="line" smooth="yes"/>
      <point x="248" y="677"/>
      <point x="256" y="682"/>
      <point x="256" y="689" type="curve" smooth="yes"/>
      <point x="256" y="696"/>
      <point x="251" y="700"/>
      <point x="239" y="700" type="curve" smooth="yes"/>
      <point x="63" y="700" type="line" smooth="yes"/>
      <point x="51" y="700"/>
      <point x="45" y="695"/>
      <point x="45" y="689" type="curve" smooth="yes"/>
      <point x="45" y="682"/>
      <point x="51" y="677"/>
      <point x="62" y="676" type="curve" smooth="yes"/>
      <point x="88" y="673" type="line" smooth="yes"/>
      <point x="115" y="670"/>
      <point x="130" y="653"/>
      <point x="130" y="623" type="curve" smooth="yes"/>
      <point x="130" y="75" type="line" smooth="yes"/>
      <point x="130" y="47"/>
      <point x="115" y="32"/>
      <point x="88" y="28" type="curve" smooth="yes"/>
      <point x="59" y="24" type="line" smooth="yes"/>
      <point x="49" y="23"/>
      <point x="44" y="19"/>
      <point x="44" y="12" type="curve" smooth="yes"/>
      <point x="44" y="5"/>
      <point x="50" y="0"/>
      <point x="61" y="0" type="curve" smooth="yes"/>
      <point x="237" y="0" type="line" smooth="yes"/>
      <point x="250" y="0"/>
      <point x="255" y="5"/>
      <point x="255" y="12" type="curve" smooth="yes"/>
      <point x="255" y="20"/>
      <point x="249" y="21"/>
      <point x="238" y="23" type="curve" smooth="yes"/>
      <point x="210" y="27" type="line" smooth="yes"/>
      <point x="185" y="31"/>
      <point x="171" y="46"/>
    </contour>
  </outline>
</glyph>
<glyph name="O" format="2">
  <advance width="769"/>
  <unicode hex="004F"/>
  <outline>
    <contour>
      <point x="378" y="714" type="curve" smooth="yes"/>
      <point x="183" y="714"/>
      <point x="45" y="566"/>
      <point x="45" y="355" type="curve" smooth="yes"/>
      <point x="45" y="140"/>
      <point x="188" y="-17"/>
      <point x="382" y="-17" type="curve" smooth="yes"/>
      <point x="582" y="-17"/>
      <point x="724" y="137"/>
      <point x="724" y="355" type="curve" smooth="yes"/>
      <point x="724" y="564"/>
      <point x="580" y="714"/>
    </contour>
    <contour>
      <point x="683" y="340" type="curve" smooth="yes"/>
      <point x="683" y="151"/>
      <point x="564" y="18"/>
      <point x="395" y="18" type="curve" smooth="yes"/>
      <point x="213" y="18"/>
      <point x="87" y="161"/>
      <point x="87" y="370" type="curve" smooth="yes"/>
      <point x="87" y="550"/>
      <point x="202" y="678"/>
      <point x="367" y="678" type="curve" smooth="yes"/>
      <point x="553" y="678"/>
      <point x="683" y="539"/>
    </contour>
  </outline>
</glyph>
<glyph name="S" format="2">
  <advance width="557"/>
  <unicode hex="0053"/>
  <outline>
    <contour>
      <point x="311" y="-17" type="curve" smooth="yes"/>
      <point x="424" y="-17"/>
      <point x="490" y="65"/>
      <point x="490" y="168" type="curve" smooth="yes"/>
      <point x="490" y="247"/>
      <point x="429" y="297"/>
      <point x="327" y="342" type="curve" smooth="yes"/>
      <point x="158" y="407"/>
      <point x="106" y="455"/>
      <point x="106" y="536" type="curve" smooth="yes"/>
      <point x="106" y="610"/>
      <point x="169" y="665"/>
      <point x="256" y="665" type="curve" smooth="yes"/>
      <point x="309" y="665"/>
      <point x="344" y="656"/>
      <point x="441" y="556" type="curve" smooth="yes"/>
      <point x="459" y="536"/>
      <point x="462" y="528"/>
      <point x="476" y="528" type="curve" smooth="yes"/>
      <point x="486" y="528"/>
      <point x="489" y="535"/>
      <point x="489" y="543" type="curve" smooth="yes"/>
      <point x="489" y="553"/>
      <point x="486" y="561"/>
      <point x="483" y="568" type="curve" smooth="yes"/>
      <point x="433" y="694" type="line" smooth="yes"/>
      <point x="427" y="710"/>
      <point x="425" y="705"/>
      <point x="424" y="705" type="curve" smooth="yes"/>
      <point x="409" y="705"/>
      <point x="415" y="681"/>
      <point x="397" y="681" type="curve" smooth="yes"/>
      <point x="366" y="681"/>
      <point x="324" y="713"/>
      <point x="262" y="713" type="curve" smooth="yes"/>
      <point x="156" y="713"/>
      <point x="62" y="623"/>
      <point x="62" y="514" type="curve" smooth="yes"/>
      <point x="62" y="421"/>
      <point x="133" y="371"/>
      <point x="219" y="331" type="curve" smooth="yes"/>
      <point x="403" y="265"/>
      <point x="441" y="224"/>
      <point x="441" y="137" type="curve" smooth="yes"/>
      <point x="441" y="66"/>
      <point x="394" y="23"/>
      <point x="318" y="23" type="curve" smooth="yes"/>
      <point x="237" y="23"/>
      <point x="184" y="54"/>
      <point x="109" y="147" type="curve" smooth="yes"/>
      <point x="102" y="156"/>
      <point x="94" y="163"/>
      <point x="87" y="163" type="curve" smooth="yes"/>
      <point x="83" y="163"/>
      <point x="79" y="157"/>
      <point x="81" y="150" type="curve" smooth="yes"/>
      <point x="109" y="1" type="line" smooth="yes"/>
      <point x="108" y="3"/>
      <point x="107" y="-7"/>
      <point x="111" y="-7" type="curve" smooth="yes"/>
      <point x="128" y="-7"/>
      <point x="126" y="28"/>
      <point x="146" y="28" type="curve" smooth="yes"/>
      <point x="182" y="28"/>
      <point x="233" y="-17"/>
    </contour>
  </outline>
</glyph>
<glyph name="a" format="2">
  <advance width="497"/>
  <unicode hex="0061"/>
  <anchor x="242" y="516" name="center"/>
  <outline>
    <contour>
      <point x="75" y="350" type="curve" smooth="yes"/>
      <point x="75" y="335"/>
      <point x="86" y="322"/>
      <point x="101" y="322" type="curve" smooth="yes"/>
      <point x="117" y="322"/>
      <point x="128" y="332"/>
      <point x="128" y="349" type="curve" smooth="yes"/>
      <point x="128" y="369" type="line" smooth="yes"/>
      <point x="128" y="408"/>
      <point x="160" y="441"/>
      <point x="233" y="441" type="curve" smooth="yes"/>
      <point x="308" y="441"/>
      <point x="352" y="401"/>
      <point x="352" y="324" type="curve" smooth="yes"/>
      <point x="352" y="44" type="line" smooth="yes"/>
      <point x="352" y="6"/>
      <point x="375" y="-10"/>
      <point x="408" y="-10" type="curve" smooth="yes"/>
      <point x="434" y="-10"/>
      <point x="455" y="9"/>
      <point x="455" y="27" type="curve" smooth="yes"/>
      <point x="455" y="36"/>
      <point x="449" y="40"/>
      <point x="443" y="40" type="curve" smooth="yes"/>
      <point x="431" y="40"/>
      <point x="432" y="21"/>
      <point x="410" y="21" type="curve" smooth="yes"/>
      <point x="397" y="21"/>
      <point x="387" y="30"/>
      <point x="387" y="47" type="curve" smooth="yes"/>
      <point x="387" y="329" type="line" smooth="yes"/>
      <point x="387" y="413"/>
      <point x="336" y="470"/>
      <point x="235" y="470" type="curve" smooth="yes"/>
      <point x="139" y="470"/>
      <point x="75" y="412"/>
    </contour>
    <contour>
      <point x="361" y="185" type="curve"/>
      <point x="363" y="213" type="line"/>
      <point x="329" y="225"/>
      <point x="283" y="234"/>
      <point x="241" y="234" type="curve" smooth="yes"/>
      <point x="128" y="234"/>
      <point x="59" y="177"/>
      <point x="59" y="108" type="curve" smooth="yes"/>
      <point x="59" y="39"/>
      <point x="112" y="-10"/>
      <point x="196" y="-10" type="curve" smooth="yes"/>
      <point x="262" y="-10"/>
      <point x="336" y="20"/>
      <point x="381" y="86" type="curve"/>
      <point x="369" y="107" type="line"/>
      <point x="325" y="47"/>
      <point x="257" y="23"/>
      <point x="197" y="23" type="curve" smooth="yes"/>
      <point x="137" y="23"/>
      <point x="99" y="61"/>
      <point x="99" y="111" type="curve" smooth="yes"/>
      <point x="99" y="168"/>
      <point x="154" y="204"/>
      <point x="241" y="204" type="curve" smooth="yes"/>
      <point x="286" y="204"/>
      <point x="326" y="196"/>
    </contour>
  </outline>
</glyph>
<glyph name="b" format="2">
  <advance width="562"/>
  <unicode hex="0062"/>
  <outline>
    <contour>
      <point x="135" y="695" type="line" smooth="yes"/>
      <point x="135" y="708"/>
      <point x="128" y="715"/>
      <point x="116" y="715" type="curve" smooth="yes"/>
      <point x="110" y="715"/>
      <point x="97" y="709"/>
      <point x="87" y="706" type="curve" smooth="yes"/>
      <point x="32" y="690" type="line" smooth="yes"/>
      <point x="22" y="687"/>
      <point x="16" y="681"/>
      <point x="16" y="674" type="curve" smooth="yes"/>
      <point x="16" y="667"/>
      <point x="22" y="661"/>
      <point x="32" y="661" type="curve" smooth="yes"/>
      <point x="79" y="661" type="line" smooth="yes"/>
      <point x="93" y="661"/>
      <point x="100" y="653"/>
      <point x="100" y="637" type="curve"/>
      <point x="100" y="17" type="line" smooth="yes"/>
      <point x="100" y="5"/>
      <point x="105" y="0"/>
      <point x="113" y="0" type="curve" smooth="yes"/>
      <point x="120" y="0"/>
      <point x="126" y="6"/>
      <point x="127" y="13" type="curve" smooth="yes"/>
      <point x="135" y="64" type="line"/>
    </contour>
    <contour>
      <point x="122" y="344" type="line"/>
      <point x="165.75178551679534" y="404.65588446646626"/>
      <point x="234.0" y="444.0"/>
      <point x="300" y="444" type="curve" smooth="yes"/>
      <point x="399.0" y="444.0"/>
      <point x="477" y="364"/>
      <point x="477" y="236" type="curve" smooth="yes"/>
      <point x="477.0" y="104.81818181818181"/>
      <point x="395.0" y="14.0"/>
      <point x="292" y="14" type="curve" smooth="yes"/>
      <point x="224" y="14"/>
      <point x="157" y="45"/>
      <point x="125" y="92" type="curve"/>
      <point x="109" y="73" type="line"/>
      <point x="147.87532136933675" y="19.802191810381245"/>
      <point x="210.8361581920904" y="-15.0"/>
      <point x="284" y="-15" type="curve" smooth="yes"/>
      <point x="413.0" y="-15.0"/>
      <point x="517.0" y="93"/>
      <point x="517" y="244" type="curve" smooth="yes"/>
      <point x="517" y="377"/>
      <point x="432.23444976076553" y="475.0"/>
      <point x="311" y="475" type="curve" smooth="yes"/>
      <point x="234.8970588235294" y="475.0"/>
      <point x="154.25925930738762" y="429.3525926580472"/>
      <point x="104" y="361" type="curve"/>
    </contour>
  </outline>
</glyph>
<glyph name="d" format="2">
  <advance width="567"/>
  <unicode hex="0064"/>
  <outline>
    <contour>
      <point x="462" y="695" type="line" smooth="yes"/>
      <point x="462" y="708"/>
      <point x="455" y="715"/>
      <point x="443" y="715" type="curve" smooth="yes"/>
      <point x="437" y="715"/>
      <point x="424" y="709"/>
      <point x="414" y="706" type="curve" smooth="yes"/>
      <point x="359" y="690" type="line" smooth="yes"/>
      <point x="349" y="687"/>
      <point x="343" y="681"/>
      <point x="343" y="674" type="curve" smooth="yes"/>
      <point x="343" y="667"/>
      <point x="349" y="661"/>
      <point x="359" y="661" type="curve" smooth="yes"/>
      <point x="406" y="661" type="line" smooth="yes"/>
      <point x="420" y="661"/>
      <point x="427" y="653"/>
      <point x="427" y="637" type="curve" smooth="yes"/>
      <point x="427" y="35" type="line" smooth="yes"/>
      <point x="427" y="5"/>
      <point x="433" y="0"/>
      <point x="459" y="0" type="curve" smooth="yes"/>
      <point x="523" y="0" type="line" smooth="yes"/>
      <point x="534" y="0"/>
      <point x="540" y="5"/>
      <point x="540" y="14" type="curve" smooth="yes"/>
      <point x="540" y="23"/>
      <point x="533" y="28"/>
      <point x="521" y="30" type="curve" smooth="yes"/>
      <point x="491" y="36" type="line" smooth="yes"/>
      <point x="473" y="40"/>
      <point x="462" y="49"/>
      <point x="462" y="65" type="curve" smooth="yes"/>
    </contour>
    <contour>
      <point x="440" y="116" type="line"/>
      <point x="396" y="55"/>
      <point x="326" y="16"/>
      <point x="259" y="16" type="curve" smooth="yes"/>
      <point x="162" y="16"/>
      <point x="85" y="96"/>
      <point x="85" y="224" type="curve" smooth="yes"/>
      <point x="85" y="349"/>
      <point x="171" y="444"/>
      <point x="275" y="444" type="curve" smooth="yes"/>
      <point x="341" y="444"/>
      <point x="405" y="412"/>
      <point x="437" y="364" type="curve"/>
      <point x="455" y="390" type="line"/>
      <point x="417" y="442"/>
      <point x="352" y="475"/>
      <point x="278" y="475" type="curve" smooth="yes"/>
      <point x="150" y="475"/>
      <point x="45" y="366"/>
      <point x="45" y="227" type="curve" smooth="yes"/>
      <point x="45" y="87"/>
      <point x="131" y="-15"/>
      <point x="254" y="-15" type="curve" smooth="yes"/>
      <point x="329" y="-15"/>
      <point x="408" y="31"/>
      <point x="458" y="99" type="curve"/>
    </contour>
  </outline>
</glyph>
<glyph name="f" format="2">
  <advance width="280"/>
  <unicode hex="0066"/>
  <outline>
    <contour>
      <point x="140" y="61" type="curve" smooth="yes"/>
      <point x="140" y="439" type="line"/>
      <point x="252" y="439" type="line" smooth="yes"/>
      <point x="263" y="439"/>
      <point x="268" y="444"/>
      <point x="268" y="452" type="curve" smooth="yes"/>
      <point x="268" y="461"/>
      <point x="263" y="465"/>
      <point x="252" y="465" type="curve" smooth="yes"/>
      <point x="131" y="465" type="line"/>
      <point x="140" y="446" type="line"/>
      <point x="140" y="473" type="line" smooth="yes"/>
      <point x="140" y="497"/>
      <point x="113" y="536"/>
      <point x="113" y="596" type="curve" smooth="yes"/>
      <point x="113" y="654"/>
      <point x="150" y="688"/>
      <point x="191" y="688" type="curve" smooth="yes"/>
      <point x="223" y="688"/>
      <point x="237" y="673"/>
      <point x="237" y="648" type="curve" smooth="yes"/>
      <point x="237" y="629" type="line" smooth="yes"/>
      <point x="237" y="612"/>
      <point x="248" y="602"/>
      <point x="264" y="602" type="curve" smooth="yes"/>
      <point x="279" y="602"/>
      <point x="290" y="614"/>
      <point x="290" y="636" type="curve" smooth="yes"/>
      <point x="290" y="683"/>
      <point x="252" y="715"/>
      <point x="191" y="715" type="curve" smooth="yes"/>
      <point x="124" y="715"/>
      <point x="77" y="662"/>
      <point x="77" y="593" type="curve" smooth="yes"/>
      <point x="77" y="526"/>
      <point x="108" y="490"/>
      <point x="108" y="454" type="curve" smooth="yes"/>
      <point x="108" y="433" type="line"/>
      <point x="120" y="465" type="line"/>
      <point x="38" y="465" type="line" smooth="yes"/>
      <point x="30" y="465"/>
      <point x="26" y="460"/>
      <point x="26" y="454" type="curve" smooth="yes"/>
      <point x="26" y="446"/>
      <point x="37" y="443"/>
      <point x="56" y="437" type="curve" smooth="yes"/>
      <point x="75" y="431" type="line" smooth="yes"/>
      <point x="97" y="424"/>
      <point x="105" y="414"/>
      <point x="105" y="394" type="curve" smooth="yes"/>
      <point x="105" y="61" type="line" smooth="yes"/>
      <point x="105" y="45"/>
      <point x="94" y="36"/>
      <point x="76" y="32" type="curve" smooth="yes"/>
      <point x="46" y="26" type="line" smooth="yes"/>
      <point x="34" y="24"/>
      <point x="27" y="20"/>
      <point x="27" y="12" type="curve" smooth="yes"/>
      <point x="27" y="4"/>
      <point x="33" y="0"/>
      <point x="44" y="0" type="curve" smooth="yes"/>
      <point x="201" y="0" type="line" smooth="yes"/>
      <point x="212" y="0"/>
      <point x="218" y="4"/>
      <point x="218" y="12" type="curve" smooth="yes"/>
      <point x="218" y="20"/>
      <point x="211" y="24"/>
      <point x="199" y="26" type="curve" smooth="yes"/>
      <point x="169" y="32" type="line" smooth="yes"/>
      <point x="151" y="36"/>
      <point x="140" y="45"/>
    </contour>
  </outline>
</glyph>
<glyph name="g" format="2">
  <advance width="515"/>
  <unicode hex="0067"/>
  <outline>
    <contour>
      <point x="391" y="8" type="curve" smooth="yes"/>
      <point x="486" y="-28"/>
      <point x="496" y="-68"/>
      <point x="496" y="-104" type="curve" smooth="yes"/>
      <point x="496" y="-185"/>
      <point x="417" y="-244"/>
      <point x="283" y="-244" type="curve" smooth="yes"/>
      <point x="138" y="-244"/>
      <point x="60" y="-188"/>
      <point x="60" y="-119" type="curve" smooth="yes"/>
      <point x="60" y="-61"/>
      <point x="100" y="-5"/>
      <point x="240" y="28" type="curve"/>
      <point x="253" y="-11" type="line"/>
      <point x="154" y="-24"/>
      <point x="106" y="-66"/>
      <point x="106" y="-111" type="curve" smooth="yes"/>
      <point x="106" y="-175"/>
      <point x="163" y="-220"/>
      <point x="298" y="-220" type="curve" smooth="yes"/>
      <point x="399" y="-220"/>
      <point x="451" y="-182"/>
      <point x="451" y="-124" type="curve" smooth="yes"/>
      <point x="451" y="-93"/>
      <point x="429" y="-68"/>
      <point x="337" y="-35" type="curve" smooth="yes"/>
      <point x="202" y="9"/>
      <point x="163" y="38"/>
      <point x="163" y="69" type="curve" smooth="yes"/>
      <point x="163" y="87"/>
      <point x="187" y="129"/>
      <point x="219" y="151" type="curve"/>
      <point x="219" y="142" type="line"/>
      <point x="202" y="126"/>
      <point x="202" y="110"/>
      <point x="202" y="93" type="curve" smooth="yes"/>
      <point x="202" y="61"/>
      <point x="235" y="46"/>
    </contour>
    <contour>
      <point x="446" y="305" type="curve" smooth="yes"/>
      <point x="446" y="198"/>
      <point x="365" y="116"/>
      <point x="254" y="116" type="curve" smooth="yes"/>
      <point x="132" y="116"/>
      <point x="59" y="196"/>
      <point x="59" y="290" type="curve" smooth="yes"/>
      <point x="59" y="401"/>
      <point x="134" y="484"/>
      <point x="257" y="484" type="curve" smooth="yes"/>
      <point x="381" y="484"/>
      <point x="446" y="398"/>
    </contour>
    <contour>
      <point x="387" y="469" type="line" smooth="yes"/>
      <point x="395" y="478" type="line" smooth="yes"/>
      <point x="408" y="481"/>
      <point x="429" y="484"/>
      <point x="452" y="484" type="curve" smooth="yes"/>
      <point x="467" y="484"/>
      <point x="490" y="468"/>
      <point x="490" y="452" type="curve" smooth="yes"/>
      <point x="490" y="443"/>
      <point x="474" y="425"/>
      <point x="469" y="425" type="curve" smooth="yes"/>
      <point x="453" y="425"/>
      <point x="448" y="432"/>
      <point x="447" y="433" type="curve" smooth="yes"/>
      <point x="431" y="444"/>
      <point x="423" y="447"/>
      <point x="412" y="447" type="curve" smooth="yes"/>
      <point x="404" y="447"/>
      <point x="397" y="438"/>
      <point x="388" y="438" type="curve"/>
    </contour>
    <contour>
      <point x="233" y="445" type="curve" smooth="yes"/>
      <point x="161" y="445"/>
      <point x="106" y="397"/>
      <point x="106" y="328" type="curve" smooth="yes"/>
      <point x="106" y="243"/>
      <point x="174" y="156"/>
      <point x="280" y="156" type="curve" smooth="yes"/>
      <point x="338" y="156"/>
      <point x="400" y="197"/>
      <point x="400" y="263" type="curve" smooth="yes"/>
      <point x="400" y="367"/>
      <point x="330" y="445"/>
    </contour>
  </outline>
</glyph>
<glyph name="h" format="2">
  <advance width="556"/>
  <unicode hex="0068"/>
  <outline>
    <contour>
      <point x="145" y="695" type="line" smooth="yes"/>
      <point x="145" y="708"/>
      <point x="138" y="715"/>
      <point x="126" y="715" type="curve" smooth="yes"/>
      <point x="120" y="715"/>
      <point x="107" y="709"/>
      <point x="97" y="706" type="curve" smooth="yes"/>
      <point x="42" y="690" type="line" smooth="yes"/>
      <point x="32" y="687"/>
      <point x="26" y="681"/>
      <point x="26" y="674" type="curve" smooth="yes"/>
      <point x="26" y="667"/>
      <point x="32" y="661"/>
      <point x="42" y="661" type="curve" smooth="yes"/>
      <point x="89" y="661" type="line" smooth="yes"/>
      <point x="103" y="661"/>
      <point x="110" y="653"/>
      <point x="110" y="637" type="curve" smooth="yes"/>
      <point x="110" y="61" type="line" smooth="yes"/>
      <point x="110" y="45"/>
      <point x="99" y="36"/>
      <point x="81" y="32" type="curve" smooth="yes"/>
      <point x="51" y="26" type="line" smooth="yes"/>
      <point x="39" y="24"/>
      <point x="32" y="20"/>
      <point x="32" y="12" type="curve" smooth="yes"/>
      <point x="32" y="4"/>
      <point x="38" y="0"/>
      <point x="49" y="0" type="curve" smooth="yes"/>
      <point x="206" y="0" type="line" smooth="yes"/>
      <point x="217" y="0"/>
      <point x="223" y="4"/>
      <point x="223" y="12" type="curve" smooth="yes"/>
      <point x="223" y="20"/>
      <point x="216" y="24"/>
      <point x="204" y="26" type="curve" smooth="yes"/>
      <point x="174" y="32" type="line" smooth="yes"/>
      <point x="156" y="36"/>
      <point x="145" y="45"/>
      <point x="145" y="61" type="curve" smooth="yes"/>
    </contour>
    <contour>
      <point x="129" y="329" type="line" smooth="yes"/>
      <point x="156" y="356" type="line" smooth="yes"/>
      <point x="212" y="412"/>
      <point x="262" y="441"/>
      <point x="304" y="441" type="curve" smooth="yes"/>
      <point x="363" y="441"/>
      <point x="392" y="406"/>
      <point x="403" y="324" type="curve" smooth="yes"/>
      <point x="439" y="61" type="line" smooth="yes"/>
      <point x="441" y="45"/>
      <point x="428" y="36"/>
      <point x="410" y="32" type="curve" smooth="yes"/>
      <point x="380" y="26" type="line" smooth="yes"/>
      <point x="368" y="24"/>
      <point x="361" y="20"/>
      <point x="361" y="12" type="curve" smooth="yes"/>
      <point x="361" y="4"/>
      <point x="367" y="0"/>
      <point x="378" y="0" type="curve" smooth="yes"/>
      <point x="535" y="0" type="line" smooth="yes"/>
      <point x="546" y="0"/>
      <point x="552" y="4"/>
      <point x="552" y="12" type="curve" smooth="yes"/>
      <point x="552" y="20"/>
      <point x="545" y="24"/>
      <point x="533" y="26" type="curve" smooth="yes"/>
      <point x="503" y="32" type="line" smooth="yes"/>
      <point x="485" y="36"/>
      <point x="476" y="45"/>
      <point x="474" y="61" type="curve" smooth="yes"/>
      <point x="438" y="334" type="line" smooth="yes"/>
      <point x="426" y="422"/>
      <point x="383" y="470"/>
      <point x="308" y="470" type="curve" smooth="yes"/>
      <point x="256" y="470"/>
      <point x="200" y="435"/>
      <point x="142" y="377" type="curve" smooth="yes"/>
      <point x="112" y="347" type="line"/>
    </contour>
  </outline>
</glyph>
<glyph name="i" format="2">
  <advance width="250"/>
  <unicode hex="0069"/>
  <outline>
    <contour>
      <point x="107" y="587" type="curve" smooth="yes"/>
      <point x="133" y="587"/>
      <point x="153" y="607"/>
      <point x="153" y="632" type="curve" smooth="yes"/>
      <point x="153" y="656"/>
      <point x="133" y="676"/>
      <point x="107" y="676" type="curve" smooth="yes"/>
      <point x="83" y="676"/>
      <point x="63" y="656"/>
      <point x="63" y="632" type="curve" smooth="yes"/>
      <point x="63" y="607"/>
      <point x="83" y="587"/>
    </contour>
    <component base="dotlessi"/>
    <component base="dotaccent" xOffset="27"/>
  </outline>
</glyph>
<glyph name="j" format="2">
  <advance width="251"/>
  <unicode hex="006A"/>
  <outline>
    <contour>
      <point x="114" y="587" type="curve" smooth="yes"/>
      <point x="140" y="587"/>
      <point x="160" y="607"/>
      <point x="160" y="632" type="curve" smooth="yes"/>
      <point x="160" y="656"/>
      <point x="140" y="676"/>
      <point x="114" y="676" type="curve" smooth="yes"/>
      <point x="90" y="676"/>
      <point x="70" y="656"/>
      <point x="70" y="632" type="curve" smooth="yes"/>
      <point x="70" y="607"/>
      <point x="90" y="587"/>
    </contour>
    <component base="dotaccent" xOffset="40" yOffset="71"/>
    <component base="jdotless" xOffset="-14"/>
  </outline>
</glyph>
<glyph name="l" format="2">
  <advance width="245"/>
  <unicode hex="006C"/>
  <outline>
    <contour>
      <point x="145" y="695" type="line" smooth="yes"/>
      <point x="145" y="708"/>
      <point x="138" y="715"/>
      <point x="126" y="715" type="curve" smooth="yes"/>
      <point x="120" y="715"/>
      <point x="107" y="709"/>
      <point x="97" y="706" type="curve" smooth="yes"/>
      <point x="42" y="690" type="line" smooth="yes"/>
      <point x="32" y="687"/>
      <point x="26" y="681"/>
      <point x="26" y="674" type="curve" smooth="yes"/>
      <point x="26" y="667"/>
      <point x="32" y="661"/>
      <point x="42" y="661" type="curve" smooth="yes"/>
      <point x="89" y="661" type="line" smooth="yes"/>
      <point x="103" y="661"/>
      <point x="110" y="653"/>
      <point x="110" y="637" type="curve" smooth="yes"/>
      <point x="110" y="61" type="line" smooth="yes"/>
      <point x="110" y="45"/>
      <point x="99" y="36"/>
      <point x="81" y="32" type="curve" smooth="yes"/>
      <point x="51" y="26" type="line" smooth="yes"/>
      <point x="39" y="24"/>
      <point x="32" y="20"/>
      <point x="32" y="12" type="curve" smooth="yes"/>
      <point x="32" y="4"/>
      <point x="38" y="0"/>
      <point x="49" y="0" type="curve" smooth="yes"/>
      <point x="206" y="0" type="line" smooth="yes"/>
      <point x="217" y="0"/>
      <point x="223" y="4"/>
      <point x="223" y="12" type="curve" smooth="yes"/>
      <point x="223" y="20"/>
      <point x="216" y="24"/>
      <point x="204" y="26" type="curve" smooth="yes"/>
      <point x="174" y="32" type="line" smooth="yes"/>
      <point x="156" y="36"/>
      <point x="145" y="45"/>
      <point x="145" y="61" type="curve" smooth="yes"/>
    </contour>
  </outline>
</glyph>
<glyph name="m" format="2">
  <advance width="870"/>
  <unicode hex="006D"/>
  <outline>
    <contour>
      <point x="134" y="329" type="line" smooth="yes"/>
      <point x="161" y="356" type="line" smooth="yes"/>
      <point x="220" y="415"/>
      <point x="274" y="441"/>
      <point x="319" y="441" type="curve" smooth="yes"/>
      <point x="385" y="441"/>
      <point x="429" y="400"/>
      <point x="429" y="324" type="curve" smooth="yes"/>
      <point x="429" y="61" type="line" smooth="yes"/>
      <point x="429" y="45"/>
      <point x="418" y="36"/>
      <point x="400" y="32" type="curve" smooth="yes"/>
      <point x="370" y="26" type="line" smooth="yes"/>
      <point x="358" y="24"/>
      <point x="351" y="20"/>
      <point x="351" y="12" type="curve" smooth="yes"/>
      <point x="351" y="4"/>
      <point x="357" y="0"/>
      <point x="368" y="0" type="curve" smooth="yes"/>
      <point x="525" y="0" type="line" smooth="yes"/>
      <point x="536" y="0"/>
      <point x="542" y="4"/>
      <point x="542" y="12" type="curve" smooth="yes"/>
      <point x="542" y="20"/>
      <point x="535" y="24"/>
      <point x="523" y="26" type="curve" smooth="yes"/>
      <point x="493" y="32" type="line" smooth="yes"/>
      <point x="475" y="36"/>
      <point x="464" y="45"/>
      <point x="464" y="61" type="curve" smooth="yes"/>
      <point x="464" y="334" type="line" smooth="yes"/>
      <point x="464" y="416"/>
      <point x="405" y="470"/>
      <point x="323" y="470" type="curve" smooth="yes"/>
      <point x="267" y="470"/>
      <point x="207" y="437"/>
      <point x="147" y="377" type="curve" smooth="yes"/>
      <point x="117" y="347" type="line"/>
    </contour>
    <contour>
      <point x="150" y="443" type="line" smooth="yes"/>
      <point x="150" y="456"/>
      <point x="143" y="463"/>
      <point x="131" y="463" type="curve" smooth="yes"/>
      <point x="125" y="463"/>
      <point x="112" y="457"/>
      <point x="102" y="454" type="curve" smooth="yes"/>
      <point x="47" y="438" type="line" smooth="yes"/>
      <point x="37" y="435"/>
      <point x="31" y="429"/>
      <point x="31" y="422" type="curve" smooth="yes"/>
      <point x="31" y="415"/>
      <point x="37" y="409"/>
      <point x="47" y="409" type="curve" smooth="yes"/>
      <point x="94" y="409" type="line" smooth="yes"/>
      <point x="108" y="409"/>
      <point x="115" y="401"/>
      <point x="115" y="385" type="curve" smooth="yes"/>
      <point x="115" y="61" type="line" smooth="yes"/>
      <point x="115" y="45"/>
      <point x="104" y="36"/>
      <point x="86" y="32" type="curve" smooth="yes"/>
      <point x="56" y="26" type="line" smooth="yes"/>
      <point x="44" y="24"/>
      <point x="37" y="20"/>
      <point x="37" y="12" type="curve" smooth="yes"/>
      <point x="37" y="4"/>
      <point x="43" y="0"/>
      <point x="54" y="0" type="curve" smooth="yes"/>
      <point x="211" y="0" type="line" smooth="yes"/>
      <point x="222" y="0"/>
      <point x="228" y="4"/>
      <point x="228" y="12" type="curve" smooth="yes"/>
      <point x="228" y="20"/>
      <point x="221" y="24"/>
      <point x="209" y="26" type="curve" smooth="yes"/>
      <point x="179" y="32" type="line" smooth="yes"/>
      <point x="161" y="36"/>
      <point x="150" y="45"/>
      <point x="150" y="61" type="curve" smooth="yes"/>
    </contour>
    <contour>
      <point x="454" y="340" type="line"/>
      <point x="470" y="356" type="line" smooth="yes"/>
      <point x="526" y="412"/>
      <point x="576" y="441"/>
      <point x="618" y="441" type="curve" smooth="yes"/>
      <point x="677" y="441"/>
      <point x="706" y="406"/>
      <point x="717" y="324" type="curve" smooth="yes"/>
      <point x="753" y="61" type="line" smooth="yes"/>
      <point x="755" y="45"/>
      <point x="742" y="36"/>
      <point x="724" y="32" type="curve" smooth="yes"/>
      <point x="694" y="26" type="line" smooth="yes"/>
      <point x="682" y="24"/>
      <point x="675" y="20"/>
      <point x="675" y="12" type="curve" smooth="yes"/>
      <point x="675" y="4"/>
      <point x="681" y="0"/>
      <point x="692" y="0" type="curve" smooth="yes"/>
      <point x="849" y="0" type="line" smooth="yes"/>
      <point x="860" y="0"/>
      <point x="866" y="4"/>
      <point x="866" y="12" type="curve" smooth="yes"/>
      <point x="866" y="20"/>
      <point x="859" y="24"/>
      <point x="847" y="26" type="curve" smooth="yes"/>
      <point x="817" y="32" type="line" smooth="yes"/>
      <point x="799" y="36"/>
      <point x="790" y="45"/>
      <point x="788" y="61" type="curve" smooth="yes"/>
      <point x="752" y="334" type="line" smooth="yes"/>
      <point x="740" y="422"/>
      <point x="697" y="470"/>
      <point x="622" y="470" type="curve" smooth="yes"/>
      <point x="570" y="470"/>
      <point x="513" y="436"/>
      <point x="456" y="379" type="curve" smooth="yes"/>
      <point x="437" y="360" type="line"/>
    </contour>
  </outline>
</glyph>
<glyph name="n" format="2">
  <advance width="561"/>
  <unicode hex="006E"/>
  <outline>
    <contour>
      <point x="134" y="329" type="line" smooth="yes"/>
      <point x="161" y="356" type="line" smooth="yes"/>
      <point x="217" y="412"/>
      <point x="267" y="441"/>
      <point x="309" y="441" type="curve" smooth="yes"/>
      <point x="368" y="441"/>
      <point x="397" y="406"/>
      <point x="408" y="324" type="curve" smooth="yes"/>
      <point x="444" y="61" type="line" smooth="yes"/>
      <point x="446" y="45"/>
      <point x="433" y="36"/>
      <point x="415" y="32" type="curve" smooth="yes"/>
      <point x="385" y="26" type="line" smooth="yes"/>
      <point x="373" y="24"/>
      <point x="366" y="20"/>
      <point x="366" y="12" type="curve" smooth="yes"/>
      <point x="366" y="4"/>
      <point x="372" y="0"/>
      <point x="383" y="0" type="curve" smooth="yes"/>
      <point x="540" y="0" type="line" smooth="yes"/>
      <point x="551" y="0"/>
      <point x="557" y="4"/>
      <point x="557" y="12" type="curve" smooth="yes"/>
      <point x="557" y="20"/>
      <point x="550" y="24"/>
      <point x="538" y="26" type="curve" smooth="yes"/>
      <point x="508" y="32" type="line" smooth="yes"/>
      <point x="490" y="36"/>
      <point x="481" y="45"/>
      <point x="479" y="61" type="curve" smooth="yes"/>
      <point x="443" y="334" type="line" smooth="yes"/>
      <point x="431" y="422"/>
      <point x="388" y="470"/>
      <point x="313" y="470" type="curve" smooth="yes"/>
      <point x="261" y="470"/>
      <point x="205" y="435"/>
      <point x="147" y="377" type="curve" smooth="yes"/>
      <point x="117" y="347" type="line"/>
    </contour>
    <contour>
      <point x="150" y="443" type="line" smooth="yes"/>
      <point x="150" y="456"/>
      <point x="143" y="463"/>
      <point x="131" y="463" type="curve" smooth="yes"/>
      <point x="125" y="463"/>
      <point x="112" y="457"/>
      <point x="102" y="454" type="curve" smooth="yes"/>
      <point x="47" y="438" type="line" smooth="yes"/>
      <point x="37" y="435"/>
      <point x="31" y="429"/>
      <point x="31" y="422" type="curve" smooth="yes"/>
      <point x="31" y="415"/>
      <point x="37" y="409"/>
      <point x="47" y="409" type="curve" smooth="yes"/>
      <point x="94" y="409" type="line" smooth="yes"/>
      <point x="108" y="409"/>
      <point x="115" y="401"/>
      <point x="115" y="385" type="curve" smooth="yes"/>
      <point x="115" y="61" type="line" smooth="yes"/>
      <point x="115" y="45"/>
      <point x="104" y="36"/>
      <point x="86" y="32" type="curve" smooth="yes"/>
      <point x="56" y="26" type="line" smooth="yes"/>
      <point x="44" y="24"/>
      <point x="37" y="20"/>
      <point x="37" y="12" type="curve" smooth="yes"/>
      <point x="37" y="4"/>
      <point x="43" y="0"/>
      <point x="54" y="0" type="curve" smooth="yes"/>
      <point x="211" y="0" type="line" smooth="yes"/>
      <point x="222" y="0"/>
      <point x="228" y="4"/>
      <point x="228" y="12" type="curve" smooth="yes"/>
      <point x="228" y="20"/>
      <point x="221" y="24"/>
      <point x="209" y="26" type="curve" smooth="yes"/>
      <point x="179" y="32" type="line" smooth="yes"/>
      <point x="161" y="36"/>
      <point x="150" y="45"/>
      <point x="150" y="61" type="curve" smooth="yes"/>
    </contour>
  </outline>
</glyph>
<glyph name="o" format="2">
  <advance width="555"/>
  <unicode hex="006F"/>
  <guideline x="546" y="-15" angle="0" identifier="9vFioShFi3"/>
  <outline>
    <contour>
      <point x="278.0" y="475.0" type="curve" smooth="yes"/>
      <point x="147.0" y="475.0"/>
      <point x="40.0" y="372.0"/>
      <point x="40.0" y="231.0" type="curve" smooth="yes"/>
      <point x="40.0" y="89.0"/>
      <point x="146.0" y="-15.0"/>
      <point x="277.0" y="-15.0" type="curve" smooth="yes"/>
      <point x="409.0" y="-15.0"/>
      <point x="515.0" y="89.0"/>
      <point x="515.0" y="231.0" type="curve" smooth="yes"/>
      <point x="515.0" y="372.0"/>
      <point x="408.0" y="475.0"/>
    </contour>
    <contour>
      <point x="80.0" y="354.0"/>
      <point x="166.0" y="444.0"/>
      <point x="274.0" y="444.0" type="curve" smooth="yes"/>
      <point x="385.0" y="444.0"/>
      <point x="475.0" y="356.0"/>
      <point x="475.0" y="227.0" type="curve" smooth="yes"/>
      <point x="475.0" y="106.0"/>
      <point x="389.0" y="16.0"/>
      <point x="281.0" y="16.0" type="curve" smooth="yes"/>
      <point x="172.0" y="16.0"/>
      <point x="80.0" y="103.0"/>
      <point x="80.0" y="234.0" type="curve" smooth="yes"/>
    </contour>
  </outline>
</glyph>
<glyph name="r" format="2">
  <advance width="375"/>
  <unicode hex="0072"/>
  <outline>
    <contour>
      <point x="145" y="443" type="line" smooth="yes"/>
      <point x="145" y="456"/>
      <point x="138" y="463"/>
      <point x="126" y="463" type="curve" smooth="yes"/>
      <point x="120" y="463"/>
      <point x="107" y="457"/>
      <point x="97" y="454" type="curve" smooth="yes"/>
      <point x="42" y="438" type="line" smooth="yes"/>
      <point x="32" y="435"/>
      <point x="26" y="429"/>
      <point x="26" y="422" type="curve" smooth="yes"/>
      <point x="26" y="415"/>
      <point x="32" y="409"/>
      <point x="42" y="409" type="curve" smooth="yes"/>
      <point x="89" y="409" type="line" smooth="yes"/>
      <point x="103" y="409"/>
      <point x="110" y="401"/>
      <point x="110" y="385" type="curve" smooth="yes"/>
      <point x="110" y="61" type="line" smooth="yes"/>
      <point x="110" y="45"/>
      <point x="99" y="36"/>
      <point x="81" y="32" type="curve" smooth="yes"/>
      <point x="51" y="26" type="line" smooth="yes"/>
      <point x="39" y="24"/>
      <point x="32" y="20"/>
      <point x="32" y="12" type="curve" smooth="yes"/>
      <point x="32" y="4"/>
      <point x="38" y="0"/>
      <point x="49" y="0" type="curve" smooth="yes"/>
      <point x="206" y="0" type="line" smooth="yes"/>
      <point x="217" y="0"/>
      <point x="223" y="4"/>
      <point x="223" y="12" type="curve" smooth="yes"/>
      <point x="223" y="20"/>
      <point x="216" y="24"/>
      <point x="204" y="26" type="curve" smooth="yes"/>
      <point x="174" y="32" type="line" smooth="yes"/>
      <point x="156" y="36"/>
      <point x="145" y="45"/>
      <point x="145" y="61" type="curve" smooth="yes"/>
    </contour>
    <contour>
      <point x="120" y="264" type="curve"/>
      <point x="145" y="256" type="line"/>
      <point x="145.0" y="377.0"/>
      <point x="208" y="441.0"/>
      <point x="267" y="441" type="curve" smooth="yes"/>
      <point x="293.7857142857143" y="441.0"/>
      <point x="312" y="432.08033520293634"/>
      <point x="312" y="406" type="curve" smooth="yes"/>
      <point x="312" y="393" type="line" smooth="yes"/>
      <point x="312" y="377"/>
      <point x="323.4230769230769" y="367.0"/>
      <point x="339" y="367" type="curve" smooth="yes"/>
      <point x="354.38461538461536" y="367.0"/>
      <point x="364" y="380"/>
      <point x="364" y="395" type="curve" smooth="yes"/>
      <point x="364.0" y="437.0"/>
      <point x="330.0" y="470.0"/>
      <point x="277" y="470" type="curve" smooth="yes"/>
      <point x="199" y="470"/>
      <point x="120.0" y="387.0"/>
    </contour>
  </outline>
</glyph>
<glyph name="s" format="2">
  <advance width="418"/>
  <unicode hex="0073"/>
  <outline>
    <contour>
      <point x="213" y="25" type="curve" smooth="yes"/>
      <point x="156" y="25"/>
      <point x="114" y="51"/>
      <point x="81" y="119" type="curve" smooth="yes"/>
      <point x="73" y="135"/>
      <point x="67" y="142"/>
      <point x="58" y="142" type="curve" smooth="yes"/>
      <point x="51" y="142"/>
      <point x="48" y="139"/>
      <point x="48" y="133" type="curve" smooth="yes"/>
      <point x="48" y="122"/>
      <point x="52" y="115"/>
      <point x="55" y="105" type="curve" smooth="yes"/>
      <point x="84" y="3" type="line" smooth="yes"/>
      <point x="86" y="-4"/>
      <point x="93" y="-7"/>
      <point x="100" y="-7" type="curve" smooth="yes"/>
      <point x="111" y="-7"/>
      <point x="118" y="11"/>
      <point x="129" y="11" type="curve" smooth="yes"/>
      <point x="151" y="11"/>
      <point x="171" y="-5"/>
      <point x="215" y="-5" type="curve" smooth="yes"/>
      <point x="314" y="-5"/>
      <point x="360" y="52"/>
      <point x="360" y="122" type="curve" smooth="yes"/>
      <point x="360" y="189"/>
      <point x="317" y="238"/>
      <point x="213" y="261" type="curve" smooth="yes"/>
      <point x="121" y="281"/>
      <point x="83" y="320"/>
      <point x="83" y="369" type="curve" smooth="yes"/>
      <point x="83" y="423"/>
      <point x="127" y="463"/>
      <point x="199" y="463" type="curve" smooth="yes"/>
      <point x="251" y="463"/>
      <point x="310" y="430"/>
      <point x="351" y="360" type="curve" smooth="yes"/>
      <point x="356" y="352"/>
      <point x="361" y="348"/>
      <point x="368" y="348" type="curve" smooth="yes"/>
      <point x="377" y="348"/>
      <point x="380" y="352"/>
      <point x="380" y="359" type="curve" smooth="yes"/>
      <point x="380" y="363"/>
      <point x="377" y="370"/>
      <point x="376" y="373" type="curve" smooth="yes"/>
      <point x="337" y="482" type="line" smooth="yes"/>
      <point x="334" y="490"/>
      <point x="328" y="494"/>
      <point x="319" y="494" type="curve" smooth="yes"/>
      <point x="306" y="494"/>
      <point x="300" y="474"/>
      <point x="290" y="474" type="curve" smooth="yes"/>
      <point x="273" y="474"/>
      <point x="244" y="492"/>
      <point x="201" y="492" type="curve" smooth="yes"/>
      <point x="108" y="492"/>
      <point x="42" y="438"/>
      <point x="42" y="358" type="curve" smooth="yes"/>
      <point x="42" y="300"/>
      <point x="81" y="249"/>
      <point x="200" y="225" type="curve" smooth="yes"/>
      <point x="288" y="207"/>
      <point x="325" y="169"/>
      <point x="325" y="117" type="curve" smooth="yes"/>
      <point x="325" y="58"/>
      <point x="285" y="25"/>
    </contour>
  </outline>
</glyph>
<glyph name="t" format="2">
  <advance width="295"/>
  <unicode hex="0074"/>
  <outline>
    <contour>
      <point x="70" y="431" type="line" smooth="yes"/>
      <point x="92" y="424"/>
      <point x="100.0" y="414.0"/>
      <point x="100" y="394" type="curve" smooth="yes"/>
      <point x="100" y="99" type="line" smooth="yes"/>
      <point x="100" y="30"/>
      <point x="138" y="-5.0"/>
      <point x="189" y="-5" type="curve" smooth="yes"/>
      <point x="226" y="-5.0"/>
      <point x="258" y="11"/>
      <point x="263" y="24" type="curve" smooth="yes"/>
      <point x="267" y="35"/>
      <point x="260.0" y="42.0"/>
      <point x="252" y="42" type="curve" smooth="yes"/>
      <point x="242.0" y="42.0"/>
      <point x="228" y="25"/>
      <point x="193" y="25" type="curve" smooth="yes"/>
      <point x="158" y="25"/>
      <point x="135" y="49.0"/>
      <point x="135" y="89" type="curve" smooth="yes"/>
      <point x="135" y="549" type="line" smooth="yes"/>
      <point x="135" y="559"/>
      <point x="129" y="565"/>
      <point x="122" y="565" type="curve" smooth="yes"/>
      <point x="115" y="565"/>
      <point x="109" y="559"/>
      <point x="106" y="549" type="curve" smooth="yes"/>
      <point x="90" y="490" type="line" smooth="yes"/>
      <point x="84.97953092162702" y="471.48702027349964"/>
      <point x="73.0" y="465"/>
      <point x="49" y="465" type="curve" smooth="yes"/>
      <point x="33" y="465" type="line" smooth="yes"/>
      <point x="25.0" y="465"/>
      <point x="21.0" y="460.4166666666667"/>
      <point x="21" y="454" type="curve" smooth="yes"/>
      <point x="21.0" y="445.5"/>
      <point x="31.889274931143227" y="443.03496581121794"/>
      <point x="51" y="437" type="curve" smooth="yes"/>
    </contour>
    <contour>
      <point x="101" y="439" type="line"/>
      <point x="247" y="439" type="line" smooth="yes"/>
      <point x="258.0" y="439"/>
      <point x="263.0" y="444"/>
      <point x="263" y="452" type="curve" smooth="yes"/>
      <point x="263.0" y="461"/>
      <point x="258.0" y="465"/>
      <point x="247" y="465" type="curve" smooth="yes"/>
      <point x="101" y="465" type="line"/>
    </contour>
  </outline>
</glyph>
<glyph name="u" format="2">
  <advance width="551"/>
  <unicode hex="0075"/>
  <anchor x="258.0" y="549" name="center"/>
  <outline>
    <contour>
      <point x="422" y="129" type="line" smooth="yes"/>
      <point x="395" y="102" type="line" smooth="yes"/>
      <point x="336" y="43"/>
      <point x="281" y="17"/>
      <point x="236" y="17" type="curve" smooth="yes"/>
      <point x="170" y="17"/>
      <point x="125" y="58"/>
      <point x="125" y="134" type="curve" smooth="yes"/>
      <point x="125" y="440" type="line" smooth="yes"/>
      <point x="125" y="453"/>
      <point x="118" y="460"/>
      <point x="106" y="460" type="curve" smooth="yes"/>
      <point x="100" y="460"/>
      <point x="87" y="454"/>
      <point x="77" y="451" type="curve" smooth="yes"/>
      <point x="22" y="435" type="line" smooth="yes"/>
      <point x="12" y="432"/>
      <point x="6" y="426"/>
      <point x="6" y="419" type="curve" smooth="yes"/>
      <point x="6" y="412"/>
      <point x="12" y="406"/>
      <point x="22" y="406" type="curve" smooth="yes"/>
      <point x="69" y="406" type="line" smooth="yes"/>
      <point x="83" y="406"/>
      <point x="90" y="398"/>
      <point x="90" y="382" type="curve" smooth="yes"/>
      <point x="90" y="124" type="line" smooth="yes"/>
      <point x="90" y="42"/>
      <point x="150" y="-12"/>
      <point x="232" y="-12" type="curve" smooth="yes"/>
      <point x="288" y="-12"/>
      <point x="349" y="21"/>
      <point x="409" y="81" type="curve" smooth="yes"/>
      <point x="439" y="111" type="line"/>
    </contour>
    <contour>
      <point x="406" y="35" type="line" smooth="yes"/>
      <point x="406" y="5"/>
      <point x="412" y="0"/>
      <point x="438" y="0" type="curve" smooth="yes"/>
      <point x="502" y="0" type="line" smooth="yes"/>
      <point x="513" y="0"/>
      <point x="519" y="5"/>
      <point x="519" y="14" type="curve" smooth="yes"/>
      <point x="519" y="23"/>
      <point x="512" y="28"/>
      <point x="500" y="30" type="curve" smooth="yes"/>
      <point x="470" y="36" type="line" smooth="yes"/>
      <point x="452" y="40"/>
      <point x="441" y="49"/>
      <point x="441" y="65" type="curve" smooth="yes"/>
      <point x="441" y="440" type="line" smooth="yes"/>
      <point x="441" y="453"/>
      <point x="434" y="460"/>
      <point x="422" y="460" type="curve" smooth="yes"/>
      <point x="416" y="460"/>
      <point x="403" y="454"/>
      <point x="393" y="451" type="curve" smooth="yes"/>
      <point x="338" y="435" type="line" smooth="yes"/>
      <point x="328" y="432"/>
      <point x="322" y="426"/>
      <point x="322" y="419" type="curve" smooth="yes"/>
      <point x="322" y="412"/>
      <point x="328" y="406"/>
      <point x="338" y="406" type="curve" smooth="yes"/>
      <point x="385" y="406" type="line" smooth="yes"/>
      <point x="399" y="406"/>
      <point x="406" y="398"/>
      <point x="406" y="382" type="curve" smooth="yes"/>
    </contour>
  </outline>
</glyph>
<glyph name="v" format="2">
  <advance width="483"/>
  <unicode hex="0076"/>
  <outline>
    <contour>
      <point x="243" y="-8" type="curve" smooth="yes"/>
      <point x="246" y="-8" type="line" smooth="yes"/>
      <point x="252.3913043478261" y="-8"/>
      <point x="259.0797628040516" y="-4.0352389160752615"/>
      <point x="267" y="14" type="curve" smooth="yes"/>
      <point x="433" y="392" type="line" smooth="yes"/>
      <point x="442.6339451458619" y="413.93753774178185"/>
      <point x="455.5057480996068" y="424.31122959975806"/>
      <point x="468" y="432" type="curve" smooth="yes"/>
      <point x="477.9078960947089" y="438.60526406313926"/>
      <point x="484.0" y="443.0"/>
      <point x="484" y="448" type="curve" smooth="yes"/>
      <point x="484" y="456"/>
      <point x="478" y="460"/>
      <point x="467" y="460" type="curve" smooth="yes"/>
      <point x="349" y="460" type="line" smooth="yes"/>
      <point x="338.0" y="460.0"/>
      <point x="332" y="456"/>
      <point x="332" y="448" type="curve" smooth="yes"/>
      <point x="332" y="440"/>
      <point x="339" y="436"/>
      <point x="351" y="434" type="curve" smooth="yes"/>
      <point x="381" y="428" type="line" smooth="yes"/>
      <point x="395.63660810450705" y="425.0726783790986"/>
      <point x="403.0" y="418.0"/>
      <point x="403" y="406" type="curve" smooth="yes"/>
      <point x="403.0" y="400.0"/>
      <point x="401" y="391"/>
      <point x="399" y="386" type="curve" smooth="yes"/>
      <point x="245" y="34" type="line" smooth="yes"/>
      <point x="253" y="35" type="line"/>
      <point x="100" y="377" type="line" smooth="yes"/>
      <point x="94.76096664363284" y="388.71078044364424"/>
      <point x="91.0" y="396.3333333333333"/>
      <point x="91" y="406" type="curve" smooth="yes"/>
      <point x="91.0" y="417.9166666666667"/>
      <point x="99.08065702457445" y="424.81613140491487"/>
      <point x="115" y="428" type="curve" smooth="yes"/>
      <point x="145" y="434" type="line" smooth="yes"/>
      <point x="157" y="436"/>
      <point x="164" y="440"/>
      <point x="164" y="448" type="curve" smooth="yes"/>
      <point x="164" y="456"/>
      <point x="158" y="460"/>
      <point x="147" y="460" type="curve" smooth="yes"/>
      <point x="15" y="460" type="line" smooth="yes"/>
      <point x="5" y="460"/>
      <point x="-2" y="456"/>
      <point x="-2" y="448" type="curve" smooth="yes"/>
      <point x="-2.0" y="442.0"/>
      <point x="5.066965197165061" y="437.55982088170094"/>
      <point x="16" y="431" type="curve" smooth="yes"/>
      <point x="29.46233002274979" y="423.3072399870001"/>
      <point x="43.1731121598629" y="413.8503741386578"/>
      <point x="53" y="392" type="curve" smooth="yes"/>
      <point x="223" y="14" type="line" smooth="yes"/>
      <point x="227.93106257845454" y="3.0356373255540365"/>
      <point x="236.0" y="-8"/>
    </contour>
  </outline>
</glyph>
<glyph name="bar" format="2">
  <advance width="361"/>
  <unicode hex="007C"/>
  <outline>
    <contour>
      <point x="152" y="268" type="curve" smooth="yes"/>
      <point x="152" y="238"/>
      <point x="168" y="-55"/>
      <point x="168" y="-238" type="curve" smooth="yes"/>
      <point x="168" y="-245"/>
      <point x="171" y="-250"/>
      <point x="180" y="-250" type="curve" smooth="yes"/>
      <point x="186" y="-250"/>
      <point x="187" y="-245"/>
      <point x="187" y="-242" type="curve" smooth="yes"/>
      <point x="187" y="-112"/>
      <point x="206" y="224"/>
      <point x="206" y="265" type="curve" smooth="yes"/>
      <point x="206" y="269"/>
      <point x="182" y="583"/>
      <point x="182" y="756" type="curve" smooth="yes"/>
      <point x="182" y="759"/>
      <point x="181" y="765"/>
      <point x="176" y="765" type="curve" smooth="yes"/>
      <point x="171" y="765"/>
      <point x="169" y="759"/>
      <point x="169" y="753" type="curve" smooth="yes"/>
      <point x="169" y="557"/>
      <point x="152" y="288"/>
    </contour>
  </outline>
</glyph>
<glyph name="brokenbar" format="2">
  <advance width="371"/>
  <unicode hex="00A6"/>
  <outline>
    <contour>
      <point x="155" y="-220" type="curve" smooth="yes"/>
      <point x="155" y="-237"/>
      <point x="163" y="-245"/>
      <point x="173" y="-245" type="curve" smooth="yes"/>
      <point x="183" y="-245"/>
      <point x="191" y="-237"/>
      <point x="191" y="-220" type="curve" smooth="yes"/>
      <point x="191" y="-165"/>
      <point x="178" y="-102"/>
      <point x="178" y="194" type="curve" smooth="yes"/>
      <point x="178" y="204"/>
      <point x="176" y="207"/>
      <point x="173" y="207" type="curve" smooth="yes"/>
      <point x="170" y="207"/>
      <point x="168" y="204"/>
      <point x="168" y="194" type="curve" smooth="yes"/>
      <point x="168" y="-102"/>
      <point x="155" y="-165"/>
    </contour>
    <contour>
      <point x="155" y="741" type="curve" smooth="yes"/>
      <point x="155" y="686"/>
      <point x="168" y="623"/>
      <point x="168" y="327" type="curve" smooth="yes"/>
      <point x="168" y="317"/>
      <point x="170" y="314"/>
      <point x="173" y="314" type="curve" smooth="yes"/>
      <point x="176" y="314"/>
      <point x="178" y="317"/>
      <point x="178" y="327" type="curve" smooth="yes"/>
      <point x="178" y="623"/>
      <point x="191" y="686"/>
      <point x="191" y="741" type="curve" smooth="yes"/>
      <point x="191" y="758"/>
      <point x="185" y="766"/>
      <point x="173" y="766" type="curve" smooth="yes"/>
      <point x="162" y="766"/>
      <point x="155" y="758"/>
    </contour>
  </outline>
</glyph>
<glyph name="dieresis" format="2">
  <advance width="392"/>
  <unicode hex="00A8"/>
  <outline>
    <contour>
      <point x="85" y="569" type="curve" smooth="yes"/>
      <point x="104" y="569"/>
      <point x="118" y="585"/>
      <point x="118" y="604" type="curve" smooth="yes"/>
      <point x="118" y="624"/>
      <point x="104" y="640"/>
      <point x="85" y="640" type="curve" smooth="yes"/>
      <point x="68" y="640"/>
      <point x="54" y="624"/>
      <point x="54" y="604" type="curve" smooth="yes"/>
      <point x="54" y="585"/>
      <point x="68" y="569"/>
    </contour>
    <contour>
      <point x="276" y="569" type="curve" smooth="yes"/>
      <point x="295" y="569"/>
      <point x="309" y="585"/>
      <point x="309" y="604" type="curve" smooth="yes"/>
      <point x="309" y="624"/>
      <point x="295" y="640"/>
      <point x="276" y="640" type="curve" smooth="yes"/>
      <point x="259" y="640"/>
      <point x="245" y="624"/>
      <point x="245" y="604" type="curve" smooth="yes"/>
      <point x="245" y="585"/>
      <point x="259" y="569"/>
    </contour>
  </outline>
</glyph>
<glyph name="copyright" format="2">
  <advance width="739"/>
  <unicode hex="00A9"/>
  <outline>
    <contour>
      <point x="369" y="-15" type="curve" smooth="yes"/>
      <point x="180" y="-15"/>
      <point x="47" y="124"/>
      <point x="47" y="313" type="curve" smooth="yes"/>
      <point x="47" y="498"/>
      <point x="183" y="629"/>
      <point x="369" y="629" type="curve" smooth="yes"/>
      <point x="555" y="629"/>
      <point x="691" y="499"/>
      <point x="691" y="313" type="curve" smooth="yes"/>
      <point x="691" y="125"/>
      <point x="556" y="-15"/>
    </contour>
    <contour>
      <point x="369" y="23" type="curve" smooth="yes"/>
      <point x="536" y="23"/>
      <point x="654" y="146"/>
      <point x="654" y="313" type="curve" smooth="yes"/>
      <point x="654" y="476"/>
      <point x="533" y="594"/>
      <point x="369" y="594" type="curve" smooth="yes"/>
      <point x="206" y="594"/>
      <point x="85" y="475"/>
      <point x="85" y="313" type="curve" smooth="yes"/>
      <point x="85" y="147"/>
      <point x="203" y="23"/>
    </contour>
    <contour>
      <point x="518" y="197" type="curve" smooth="yes"/>
      <point x="517" y="194"/>
      <point x="516" y="195"/>
      <point x="515" y="195" type="curve" smooth="yes"/>
      <point x="511" y="195"/>
      <point x="507" y="188"/>
      <point x="503" y="189" type="curve" smooth="yes"/>
      <point x="474" y="176"/>
      <point x="437" y="162"/>
      <point x="395" y="162" type="curve" smooth="yes"/>
      <point x="295" y="162"/>
      <point x="229" y="233"/>
      <point x="229" y="326" type="curve" smooth="yes"/>
      <point x="229" y="422"/>
      <point x="294" y="476"/>
      <point x="383" y="476" type="curve" smooth="yes"/>
      <point x="422" y="476"/>
      <point x="432" y="462"/>
      <point x="482" y="414" type="curve" smooth="yes"/>
      <point x="492" y="406"/>
      <point x="500" y="400"/>
      <point x="507" y="400" type="curve" smooth="yes"/>
      <point x="510" y="400"/>
      <point x="513" y="403"/>
      <point x="513" y="408" type="curve" smooth="yes"/>
      <point x="513" y="412"/>
      <point x="510" y="414"/>
      <point x="508" y="421" type="curve" smooth="yes"/>
      <point x="484" y="506" type="line" smooth="yes"/>
      <point x="483" y="509"/>
      <point x="478" y="511"/>
      <point x="475" y="511" type="curve" smooth="yes"/>
      <point x="470" y="511"/>
      <point x="473" y="495"/>
      <point x="468" y="495" type="curve" smooth="yes"/>
      <point x="448" y="495"/>
      <point x="426" y="511"/>
      <point x="378" y="511" type="curve" smooth="yes"/>
      <point x="274" y="511"/>
      <point x="193" y="423"/>
      <point x="193" y="304" type="curve" smooth="yes"/>
      <point x="193" y="196"/>
      <point x="265" y="113"/>
      <point x="377" y="113" type="curve" smooth="yes"/>
      <point x="461" y="113"/>
      <point x="523" y="160"/>
    </contour>
  </outline>
</glyph>
<glyph name="registered" format="2">
  <advance width="449"/>
  <unicode hex="00AE"/>
  <outline>
    <contour>
      <point x="224" y="243" type="curve" smooth="yes"/>
      <point x="110" y="243"/>
      <point x="30" y="329"/>
      <point x="30" y="443" type="curve" smooth="yes"/>
      <point x="30" y="554"/>
      <point x="112" y="634"/>
      <point x="224" y="634" type="curve" smooth="yes"/>
      <point x="336" y="634"/>
      <point x="418" y="554"/>
      <point x="418" y="443" type="curve" smooth="yes"/>
      <point x="418" y="329"/>
      <point x="338" y="243"/>
    </contour>
    <contour>
      <point x="224" y="268" type="curve" smooth="yes"/>
      <point x="324" y="268"/>
      <point x="394" y="342"/>
      <point x="394" y="443" type="curve" smooth="yes"/>
      <point x="394" y="539"/>
      <point x="321" y="609"/>
      <point x="224" y="609" type="curve" smooth="yes"/>
      <point x="126" y="609"/>
      <point x="55" y="540"/>
      <point x="55" y="443" type="curve" smooth="yes"/>
      <point x="55" y="342"/>
      <point x="124" y="268"/>
    </contour>
    <contour>
      <point x="304" y="480" type="curve" smooth="yes"/>
      <point x="304" y="525"/>
      <point x="263" y="553"/>
      <point x="213" y="553" type="curve" smooth="yes"/>
      <point x="148" y="553" type="line" smooth="yes"/>
      <point x="142" y="553"/>
      <point x="138" y="555"/>
      <point x="138" y="555" type="curve" smooth="yes"/>
      <point x="138" y="555"/>
      <point x="143" y="553"/>
      <point x="147" y="553" type="curve" smooth="yes"/>
      <point x="153" y="553" type="line" smooth="yes"/>
      <point x="159" y="551"/>
      <point x="166" y="544"/>
      <point x="166" y="537" type="curve" smooth="yes"/>
      <point x="166" y="352" type="line" smooth="yes"/>
      <point x="166" y="347"/>
      <point x="159" y="338"/>
      <point x="153" y="338" type="curve" smooth="yes"/>
      <point x="147" y="338" type="line" smooth="yes"/>
      <point x="143" y="339"/>
      <point x="138" y="337"/>
      <point x="138" y="336" type="curve" smooth="yes"/>
      <point x="138" y="334"/>
      <point x="142" y="335"/>
      <point x="148" y="335" type="curve" smooth="yes"/>
      <point x="207" y="335" type="line" smooth="yes"/>
      <point x="213" y="335"/>
      <point x="215" y="334"/>
      <point x="215" y="336" type="curve" smooth="yes"/>
      <point x="215" y="338"/>
      <point x="213" y="335"/>
      <point x="207" y="337" type="curve" smooth="yes"/>
      <point x="202" y="338" type="line" smooth="yes"/>
      <point x="196" y="339"/>
      <point x="191" y="343"/>
      <point x="191" y="352" type="curve" smooth="yes"/>
      <point x="191" y="535" type="line"/>
      <point x="211" y="535" type="line" smooth="yes"/>
      <point x="253" y="535"/>
      <point x="282" y="520"/>
      <point x="282" y="494" type="curve" smooth="yes"/>
      <point x="282" y="454"/>
      <point x="257" y="429"/>
      <point x="222" y="429" type="curve" smooth="yes"/>
      <point x="193" y="429"/>
      <point x="176" y="432"/>
      <point x="159" y="442" type="curve"/>
      <point x="155" y="428" type="line"/>
      <point x="173" y="417"/>
      <point x="186" y="414"/>
      <point x="211" y="414" type="curve" smooth="yes"/>
      <point x="269" y="414"/>
      <point x="304" y="443"/>
    </contour>
    <contour>
      <point x="227" y="419" type="line"/>
      <point x="275" y="354" type="line" smooth="yes"/>
      <point x="278" y="351"/>
      <point x="280" y="348"/>
      <point x="280" y="345" type="curve" smooth="yes"/>
      <point x="280" y="342"/>
      <point x="277" y="339"/>
      <point x="271" y="337" type="curve" smooth="yes"/>
      <point x="272" y="335"/>
      <point x="271" y="335"/>
      <point x="271" y="335" type="curve" smooth="yes"/>
      <point x="271" y="334"/>
      <point x="274" y="335"/>
      <point x="279" y="335" type="curve" smooth="yes"/>
      <point x="331" y="335" type="line" smooth="yes"/>
      <point x="339" y="335"/>
      <point x="341" y="336"/>
      <point x="341" y="336" type="curve" smooth="yes"/>
      <point x="341" y="338"/>
      <point x="339" y="336"/>
      <point x="336" y="337" type="curve" smooth="yes"/>
      <point x="323" y="338"/>
      <point x="319" y="345"/>
      <point x="312" y="352" type="curve" smooth="yes"/>
      <point x="250" y="423" type="line"/>
    </contour>
  </outline>
</glyph>
<glyph name="degree" format="2">
  <advance width="377"/>
  <unicode hex="00B0"/>
  <outline>
    <contour>
      <point x="191" y="636" type="curve" smooth="yes"/>
      <point x="115" y="636"/>
      <point x="66" y="583"/>
      <point x="66" y="521" type="curve" smooth="yes"/>
      <point x="66" y="454"/>
      <point x="116" y="405"/>
      <point x="185" y="405" type="curve" smooth="yes"/>
      <point x="255" y="405"/>
      <point x="311" y="454"/>
      <point x="311" y="528" type="curve" smooth="yes"/>
      <point x="311" y="591"/>
      <point x="261" y="636"/>
    </contour>
    <contour>
      <point x="277" y="507" type="curve" smooth="yes"/>
      <point x="277" y="464"/>
      <point x="244" y="436"/>
      <point x="195" y="436" type="curve" smooth="yes"/>
      <point x="139" y="436"/>
      <point x="97" y="479"/>
      <point x="97" y="533" type="curve" smooth="yes"/>
      <point x="97" y="574"/>
      <point x="133" y="607"/>
      <point x="183" y="607" type="curve" smooth="yes"/>
      <point x="240" y="607"/>
      <point x="277" y="563"/>
    </contour>
  </outline>
</glyph>
<glyph name="cedilla" format="2">
  <advance width="317"/>
  <unicode hex="00B8"/>
  <outline>
    <contour>
      <point x="153" y="8" type="line"/>
      <point x="104" y="-114" type="line" smooth="yes"/>
      <point x="109" y="-109"/>
      <point x="123" y="-102"/>
      <point x="118" y="-102" type="curve" smooth="yes"/>
      <point x="125" y="-102"/>
      <point x="132" y="-100"/>
      <point x="143" y="-100" type="curve" smooth="yes"/>
      <point x="169" y="-100"/>
      <point x="186" y="-117"/>
      <point x="186" y="-157" type="curve" smooth="yes"/>
      <point x="186" y="-188"/>
      <point x="166" y="-209"/>
      <point x="136" y="-209" type="curve" smooth="yes"/>
      <point x="110" y="-209"/>
      <point x="95" y="-206"/>
      <point x="95" y="-203" type="curve" smooth="yes"/>
      <point x="95" y="-203" type="line" smooth="yes"/>
      <point x="95" y="-172"/>
      <point x="87" y="-152"/>
      <point x="79" y="-152" type="curve" smooth="yes"/>
      <point x="72" y="-152"/>
      <point x="63" y="-161"/>
      <point x="63" y="-174" type="curve" smooth="yes"/>
      <point x="63" y="-215"/>
      <point x="96" y="-245"/>
      <point x="121" y="-245" type="curve" smooth="yes"/>
      <point x="169" y="-245"/>
      <point x="208" y="-213"/>
      <point x="208" y="-166" type="curve" smooth="yes"/>
      <point x="208" y="-118"/>
      <point x="172" y="-91"/>
      <point x="120" y="-91" type="curve" smooth="yes"/>
      <point x="123" y="-91"/>
      <point x="125" y="-86"/>
      <point x="116" y="-103" type="curve"/>
      <point x="120" y="-86" type="line"/>
      <point x="166" y="9" type="line"/>
    </contour>
  </outline>
</glyph>
<glyph name="Thorn" format="2">
  <advance width="590"/>
  <unicode hex="00DE"/>
  <outline>
    <contour>
      <point x="141" y="525" type="line"/>
      <point x="347" y="525" type="line" smooth="yes"/>
      <point x="428" y="525"/>
      <point x="512" y="482"/>
      <point x="512" y="359" type="curve" smooth="yes"/>
      <point x="512" y="234"/>
      <point x="434" y="178"/>
      <point x="331" y="178" type="curve" smooth="yes"/>
      <point x="234" y="178"/>
      <point x="194" y="198"/>
      <point x="144" y="224" type="curve"/>
      <point x="134" y="190" type="line"/>
      <point x="204" y="153"/>
      <point x="250" y="141"/>
      <point x="333" y="141" type="curve" smooth="yes"/>
      <point x="459" y="141"/>
      <point x="566" y="189"/>
      <point x="566" y="324" type="curve" smooth="yes"/>
      <point x="566" y="485"/>
      <point x="454" y="572"/>
      <point x="313" y="572" type="curve" smooth="yes"/>
      <point x="141" y="572" type="line"/>
    </contour>
    <component base="I" xOffset="3"/>
  </outline>
</glyph>
<glyph name="dotlessi" format="2">
  <advance width="240"/>
  <unicode hex="0131"/>
  <outline>
    <contour>
      <point x="140" y="458" type="line" smooth="yes"/>
      <point x="140" y="471"/>
      <point x="133" y="478"/>
      <point x="121" y="478" type="curve" smooth="yes"/>
      <point x="115" y="478"/>
      <point x="102" y="472"/>
      <point x="92" y="469" type="curve" smooth="yes"/>
      <point x="37" y="453" type="line" smooth="yes"/>
      <point x="27" y="450"/>
      <point x="21" y="444"/>
      <point x="21" y="437" type="curve" smooth="yes"/>
      <point x="21" y="430"/>
      <point x="27" y="424"/>
      <point x="37" y="424" type="curve" smooth="yes"/>
      <point x="84" y="424" type="line" smooth="yes"/>
      <point x="98" y="424"/>
      <point x="105" y="416"/>
      <point x="105" y="400" type="curve" smooth="yes"/>
      <point x="105" y="61" type="line" smooth="yes"/>
      <point x="105" y="45"/>
      <point x="94" y="36"/>
      <point x="76" y="32" type="curve" smooth="yes"/>
      <point x="46" y="26" type="line" smooth="yes"/>
      <point x="34" y="24"/>
      <point x="27" y="20"/>
      <point x="27" y="12" type="curve" smooth="yes"/>
      <point x="27" y="4"/>
      <point x="33" y="0"/>
      <point x="44" y="0" type="curve" smooth="yes"/>
      <point x="201" y="0" type="line" smooth="yes"/>
      <point x="212" y="0"/>
      <point x="218" y="4"/>
      <point x="218" y="12" type="curve" smooth="yes"/>
      <point x="218" y="20"/>
      <point x="211" y="24"/>
      <point x="199" y="26" type="curve" smooth="yes"/>
      <point x="169" y="32" type="line" smooth="yes"/>
      <point x="151" y="36"/>
      <point x="140" y="45"/>
      <point x="140" y="61" type="curve" smooth="yes"/>
    </contour>
  </outline>
</glyph>
<glyph name="dotaccent" format="2">
  <advance width="237"/>
  <unicode hex="02D9"/>
  <outline>
    <contour>
      <point x="99" y="611" type="curve" smooth="yes"/>
      <point x="120" y="611"/>
      <point x="136" y="627"/>
      <point x="136" y="646" type="curve" smooth="yes"/>
      <point x="136" y="666"/>
      <point x="120" y="682"/>
      <point x="99" y="682" type="curve" smooth="yes"/>
      <point x="79" y="682"/>
      <point x="63" y="666"/>
      <point x="63" y="646" type="curve" smooth="yes"/>
      <point x="63" y="627"/>
      <point x="79" y="611"/>
    </contour>
  </outline>
</glyph>
<glyph name="ogonek" format="2">
  <advance width="325"/>
  <unicode hex="02DB"/>
  <anchor x="376" y="-149" name="right"/>
  <outline>
    <contour>
      <point x="237" y="22" type="line"/>
      <point x="100" y="-49"/>
      <point x="72" y="-112"/>
      <point x="72" y="-169" type="curve" smooth="yes"/>
      <point x="72" y="-213"/>
      <point x="103" y="-248"/>
      <point x="153" y="-248" type="curve" smooth="yes"/>
      <point x="206" y="-248"/>
      <point x="238" y="-220"/>
      <point x="238" y="-187" type="curve" smooth="yes"/>
      <point x="238" y="-173"/>
      <point x="231" y="-165"/>
      <point x="221" y="-165" type="curve" smooth="yes"/>
      <point x="205" y="-165"/>
      <point x="193" y="-176"/>
      <point x="193" y="-194" type="curve" smooth="yes"/>
      <point x="193" y="-208"/>
      <point x="183" y="-216"/>
      <point x="171" y="-216" type="curve" smooth="yes"/>
      <point x="150" y="-216"/>
      <point x="131" y="-197"/>
      <point x="131" y="-154" type="curve" smooth="yes"/>
      <point x="131" y="-99"/>
      <point x="153" y="-51"/>
      <point x="243" y="2" type="curve"/>
    </contour>
  </outline>
</glyph>
<glyph name="Germandbls" format="2">
  <advance width="721"/>
  <unicode hex="1E9E"/>
  <outline>
    <contour>
      <point x="581" y="700" type="curve" smooth="yes"/>
      <point x="87" y="700" type="line" smooth="yes"/>
      <point x="70" y="700"/>
      <point x="57" y="697"/>
      <point x="57" y="684" type="curve" smooth="yes"/>
      <point x="57" y="678"/>
      <point x="60" y="670"/>
      <point x="69" y="669" type="curve" smooth="yes"/>
      <point x="117" y="658" type="line" smooth="yes"/>
      <point x="134" y="654"/>
      <point x="143" y="637"/>
      <point x="143" y="603" type="curve" smooth="yes"/>
      <point x="143" y="80" type="line" smooth="yes"/>
      <point x="143" y="49"/>
      <point x="130" y="33"/>
      <point x="112" y="29" type="curve" smooth="yes"/>
      <point x="92" y="26" type="line" smooth="yes"/>
      <point x="77" y="23"/>
      <point x="70" y="20"/>
      <point x="70" y="13" type="curve" smooth="yes"/>
      <point x="70" y="4"/>
      <point x="75" y="0"/>
      <point x="84" y="0" type="curve" smooth="yes"/>
      <point x="171" y="0" type="line" smooth="yes"/>
      <point x="186" y="0"/>
      <point x="198" y="12"/>
      <point x="198" y="31" type="curve" smooth="yes"/>
      <point x="198" y="583" type="line" smooth="yes"/>
      <point x="198" y="635"/>
      <point x="204" y="660"/>
      <point x="226" y="660" type="curve" smooth="yes"/>
      <point x="482" y="660" type="line" smooth="yes"/>
      <point x="507" y="660"/>
      <point x="519" y="651"/>
      <point x="519" y="632" type="curve" smooth="yes"/>
      <point x="519" y="614"/>
      <point x="517" y="612"/>
      <point x="508" y="601" type="curve" smooth="yes"/>
      <point x="389" y="438" type="line" smooth="yes"/>
      <point x="378" y="421"/>
      <point x="373" y="406"/>
      <point x="373" y="396" type="curve" smooth="yes"/>
      <point x="373" y="381"/>
      <point x="380" y="361"/>
      <point x="402" y="361" type="curve" smooth="yes"/>
      <point x="418" y="361" type="line" smooth="yes"/>
      <point x="502" y="361"/>
      <point x="598" y="297"/>
      <point x="598" y="166" type="curve" smooth="yes"/>
      <point x="598" y="71"/>
      <point x="557" y="25"/>
      <point x="501" y="25" type="curve" smooth="yes"/>
      <point x="431" y="25"/>
      <point x="370" y="54"/>
      <point x="346" y="89" type="curve" smooth="yes"/>
      <point x="322" y="131" type="line" smooth="yes"/>
      <point x="307" y="157"/>
      <point x="301" y="167"/>
      <point x="290" y="167" type="curve" smooth="yes"/>
      <point x="282" y="167"/>
      <point x="276" y="154"/>
      <point x="279" y="134" type="curve" smooth="yes"/>
      <point x="299" y="22" type="line" smooth="yes"/>
      <point x="303" y="-5"/>
      <point x="309" y="-17"/>
      <point x="320" y="-17" type="curve" smooth="yes"/>
      <point x="336" y="-17"/>
      <point x="339" y="7"/>
      <point x="350" y="6" type="curve" smooth="yes"/>
      <point x="375" y="4"/>
      <point x="404" y="-17"/>
      <point x="466" y="-17" type="curve" smooth="yes"/>
      <point x="572" y="-17"/>
      <point x="645" y="76"/>
      <point x="645" y="205" type="curve" smooth="yes"/>
      <point x="645" y="322"/>
      <point x="559" y="399"/>
      <point x="413" y="399" type="curve"/>
      <point x="393" y="355" type="line"/>
      <point x="590" y="614" type="line" smooth="yes"/>
      <point x="599" y="626"/>
      <point x="613" y="638"/>
      <point x="613" y="651" type="curve" smooth="yes"/>
      <point x="613" y="681"/>
      <point x="600" y="700"/>
    </contour>
  </outline>
</glyph>
<glyph name="endash" format="2">
  <advance width="645"/>
  <unicode hex="2013"/>
  <outline>
    <contour>
      <point x="55" y="223" type="curve" smooth="yes"/>
      <point x="55" y="216"/>
      <point x="59" y="212"/>
      <point x="66" y="212" type="curve" smooth="yes"/>
      <point x="578" y="212" type="line" smooth="yes"/>
      <point x="586" y="212"/>
      <point x="590" y="216"/>
      <point x="590" y="223" type="curve" smooth="yes"/>
      <point x="590" y="231"/>
      <point x="585" y="237"/>
      <point x="578" y="237" type="curve" smooth="yes"/>
      <point x="67" y="237" type="line" smooth="yes"/>
      <point x="60" y="237"/>
      <point x="55" y="231"/>
    </contour>
  </outline>
</glyph>
<glyph name="approxequal" format="2">
  <advance width="465"/>
  <unicode hex="2248"/>
  <outline>
    <contour>
      <point x="59" y="360" type="curve" smooth="yes"/>
      <point x="59" y="389"/>
      <point x="88" y="411"/>
      <point x="139" y="411" type="curve" smooth="yes"/>
      <point x="208" y="411"/>
      <point x="296" y="369"/>
      <point x="348" y="369" type="curve" smooth="yes"/>
      <point x="394" y="369"/>
      <point x="375" y="405"/>
      <point x="407" y="405" type="curve" smooth="yes"/>
      <point x="407" y="405"/>
      <point x="406" y="405"/>
      <point x="406" y="404" type="curve" smooth="yes"/>
      <point x="406" y="365"/>
      <point x="375" y="350"/>
      <point x="337" y="350" type="curve" smooth="yes"/>
      <point x="252" y="350"/>
      <point x="161" y="389"/>
      <point x="130" y="389" type="curve" smooth="yes"/>
      <point x="85" y="389"/>
      <point x="101" y="354"/>
      <point x="67" y="354" type="curve" smooth="yes"/>
      <point x="63" y="354"/>
      <point x="59" y="357"/>
    </contour>
    <contour>
      <point x="59" y="241" type="curve" smooth="yes"/>
      <point x="59" y="265"/>
      <point x="88" y="282"/>
      <point x="139" y="282" type="curve" smooth="yes"/>
      <point x="208" y="282"/>
      <point x="296" y="240"/>
      <point x="348" y="240" type="curve" smooth="yes"/>
      <point x="394" y="240"/>
      <point x="375" y="277"/>
      <point x="407" y="277" type="curve" smooth="yes"/>
      <point x="407" y="277"/>
      <point x="406" y="272"/>
      <point x="406" y="266" type="curve" smooth="yes"/>
      <point x="406" y="233"/>
      <point x="376" y="221"/>
      <point x="337" y="221" type="curve" smooth="yes"/>
      <point x="252" y="221"/>
      <point x="161" y="261"/>
      <point x="130" y="261" type="curve" smooth="yes"/>
      <point x="85" y="261"/>
      <point x="101" y="225"/>
      <point x="67" y="225" type="curve" smooth="yes"/>
      <point x="62" y="225"/>
      <point x="59" y="233"/>
    </contour>
  </outline>
</glyph>
<glyph name="bracketangleleft" format="2">
  <advance width="406"/>
  <unicode hex="27E8"/>
  <outline>
    <contour>
      <point x="134" y="287" type="line"/>
      <point x="371" y="709" type="line" smooth="yes"/>
      <point x="374" y="716"/>
      <point x="382" y="727"/>
      <point x="382" y="734" type="curve" smooth="yes"/>
      <point x="382" y="741"/>
      <point x="379" y="748"/>
      <point x="373" y="748" type="curve" smooth="yes"/>
      <point x="368" y="748"/>
      <point x="365" y="746"/>
      <point x="366" y="747" type="curve" smooth="yes"/>
      <point x="118" y="317" type="line" smooth="yes"/>
      <point x="113" y="308"/>
      <point x="108" y="296"/>
      <point x="108" y="286" type="curve" smooth="yes"/>
      <point x="108" y="281"/>
      <point x="113" y="264"/>
      <point x="114" y="261" type="curve" smooth="yes"/>
      <point x="368" y="-171" type="line" smooth="yes"/>
      <point x="370" y="-174"/>
      <point x="372" y="-174"/>
      <point x="376" y="-174" type="curve" smooth="yes"/>
      <point x="381" y="-174"/>
      <point x="385" y="-167"/>
      <point x="385" y="-159" type="curve" smooth="yes"/>
      <point x="385" y="-153"/>
      <point x="376" y="-141"/>
      <point x="374" y="-134" type="curve" smooth="yes"/>
    </contour>
  </outline>
</glyph>
<glyph name="commaaccentbelowcmb.case" format="2">
  <outline>
    <contour>
      <point x="100" y="-150" type="curve" smooth="yes"/>
      <point x="113" y="-150" type="line" smooth="yes"/>
      <point x="124" y="-150"/>
      <point x="127" y="-156"/>
      <point x="127" y="-166" type="curve" smooth="yes"/>
      <point x="127" y="-197"/>
      <point x="118" y="-209"/>
      <point x="99" y="-221" type="curve" smooth="yes"/>
      <point x="92" y="-229"/>
      <point x="88" y="-228"/>
      <point x="88" y="-234" type="curve" smooth="yes"/>
      <point x="88" y="-240"/>
      <point x="92" y="-245"/>
      <point x="101" y="-245" type="curve" smooth="yes"/>
      <point x="109" y="-245"/>
      <point x="143" y="-212"/>
      <point x="143" y="-140" type="curve" smooth="yes"/>
      <point x="143" y="-77"/>
      <point x="121" y="-63"/>
      <point x="100" y="-63" type="curve" smooth="yes"/>
      <point x="81" y="-63"/>
      <point x="65" y="-81"/>
      <point x="65" y="-101" type="curve" smooth="yes"/>
      <point x="65" y="-129"/>
      <point x="80" y="-150"/>
    </contour>
  </outline>
</glyph>
<glyph name="h.alt" format="2">
  <advance width="556"/>
  <outline>
    <contour>
      <point x="140" y="695" type="line" smooth="yes"/>
      <point x="140" y="708"/>
      <point x="133" y="715"/>
      <point x="121" y="715" type="curve" smooth="yes"/>
      <point x="115" y="715"/>
      <point x="102" y="709"/>
      <point x="92" y="706" type="curve" smooth="yes"/>
      <point x="37" y="690" type="line" smooth="yes"/>
      <point x="27" y="687"/>
      <point x="21" y="681"/>
      <point x="21" y="674" type="curve" smooth="yes"/>
      <point x="21" y="667"/>
      <point x="27" y="661"/>
      <point x="37" y="661" type="curve" smooth="yes"/>
      <point x="84" y="661" type="line" smooth="yes"/>
      <point x="98" y="661"/>
      <point x="105" y="653"/>
      <point x="105" y="637" type="curve" smooth="yes"/>
      <point x="105" y="61" type="line" smooth="yes"/>
      <point x="105" y="45"/>
      <point x="94" y="36"/>
      <point x="76" y="32" type="curve" smooth="yes"/>
      <point x="46" y="26" type="line" smooth="yes"/>
      <point x="34" y="24"/>
      <point x="27" y="20"/>
      <point x="27" y="12" type="curve" smooth="yes"/>
      <point x="27" y="4"/>
      <point x="33" y="0"/>
      <point x="44" y="0" type="curve" smooth="yes"/>
      <point x="201" y="0" type="line" smooth="yes"/>
      <point x="212" y="0"/>
      <point x="218" y="4"/>
      <point x="218" y="12" type="curve" smooth="yes"/>
      <point x="218" y="20"/>
      <point x="211" y="24"/>
      <point x="199" y="26" type="curve" smooth="yes"/>
      <point x="169" y="32" type="line" smooth="yes"/>
      <point x="151" y="36"/>
      <point x="140" y="45"/>
      <point x="140" y="61" type="curve" smooth="yes"/>
    </contour>
    <contour>
      <point x="124" y="329" type="line" smooth="yes"/>
      <point x="151" y="356" type="line" smooth="yes"/>
      <point x="210" y="415"/>
      <point x="265" y="441.0"/>
      <point x="310" y="441" type="curve" smooth="yes"/>
      <point x="376" y="441.0"/>
      <point x="421" y="400.0"/>
      <point x="421" y="324" type="curve" smooth="yes"/>
      <point x="421" y="61" type="line" smooth="yes"/>
      <point x="421" y="45"/>
      <point x="410" y="36"/>
      <point x="392" y="32" type="curve" smooth="yes"/>
      <point x="362" y="26" type="line" smooth="yes"/>
      <point x="350" y="24"/>
      <point x="343" y="20"/>
      <point x="343" y="12" type="curve" smooth="yes"/>
      <point x="343" y="4"/>
      <point x="349" y="0"/>
      <point x="360" y="0" type="curve" smooth="yes"/>
      <point x="517" y="0" type="line" smooth="yes"/>
      <point x="528" y="0"/>
      <point x="534" y="4"/>
      <point x="534" y="12" type="curve" smooth="yes"/>
      <point x="534" y="20"/>
      <point x="527" y="24"/>
      <point x="515" y="26" type="curve" smooth="yes"/>
      <point x="485" y="32" type="line" smooth="yes"/>
      <point x="467" y="36"/>
      <point x="456" y="45"/>
      <point x="456" y="61" type="curve" smooth="yes"/>
      <point x="456" y="334" type="line" smooth="yes"/>
      <point x="456.0" y="416.0"/>
      <point x="396.0" y="470.0"/>
      <point x="314" y="470" type="curve" smooth="yes"/>
      <point x="258" y="470"/>
      <point x="197" y="437"/>
      <point x="137" y="377" type="curve" smooth="yes"/>
      <point x="107" y="347" type="line"/>
    </contour>
  </outline>
</glyph>
<glyph name="invertedbrevecmb.case" format="2">
  <outline>
    <contour>
      <point x="150" y="843" type="curve" smooth="yes"/>
      <point x="205" y="843"/>
      <point x="256" y="792"/>
      <point x="256" y="752" type="curve" smooth="yes"/>
      <point x="256" y="744"/>
      <point x="253" y="738"/>
      <point x="244" y="738" type="curve" smooth="yes"/>
      <point x="242" y="738"/>
      <point x="232" y="738"/>
      <point x="240" y="740" type="curve" smooth="yes"/>
      <point x="225" y="780"/>
      <point x="193" y="795"/>
      <point x="150" y="795" type="curve" smooth="yes"/>
      <point x="104" y="795"/>
      <point x="67" y="781"/>
      <point x="52" y="737" type="curve" smooth="yes"/>
      <point x="63" y="740"/>
      <point x="59" y="738"/>
      <point x="53" y="738" type="curve" smooth="yes"/>
      <point x="50" y="738"/>
      <point x="43" y="743"/>
      <point x="43" y="752" type="curve" smooth="yes"/>
      <point x="43" y="786"/>
      <point x="87" y="843"/>
    </contour>
  </outline>
</glyph>
<glyph name="jdotless" format="2">
  <advance width="251"/>
  <anchor x="144.0" y="540" name="center"/>
  <outline>
    <contour>
      <point x="161" y="-20" type="line" smooth="yes"/>
      <point x="161" y="-57"/>
      <point x="172" y="-96"/>
      <point x="172" y="-135" type="curve" smooth="yes"/>
      <point x="172" y="-198"/>
      <point x="122" y="-243"/>
      <point x="59" y="-243" type="curve" smooth="yes"/>
      <point x="19" y="-243"/>
      <point x="-20" y="-213"/>
      <point x="-20" y="-177" type="curve" smooth="yes"/>
      <point x="-20" y="-145"/>
      <point x="-6" y="-125"/>
      <point x="19" y="-125" type="curve" smooth="yes"/>
      <point x="45" y="-125"/>
      <point x="62" y="-137"/>
      <point x="62" y="-154" type="curve" smooth="yes"/>
      <point x="62" y="-169" type="line" smooth="yes"/>
      <point x="62" y="-188"/>
      <point x="73" y="-198"/>
      <point x="92" y="-198" type="curve" smooth="yes"/>
      <point x="119" y="-198"/>
      <point x="137" y="-176"/>
      <point x="137" y="-141" type="curve" smooth="yes"/>
      <point x="137" y="-109"/>
      <point x="125" y="-81"/>
      <point x="125" y="-42" type="curve" smooth="yes"/>
      <point x="125" y="374" type="line" smooth="yes"/>
      <point x="125" y="404"/>
      <point x="105" y="416"/>
      <point x="81" y="416" type="curve" smooth="yes"/>
      <point x="58" y="416" type="line" smooth="yes"/>
      <point x="48" y="416"/>
      <point x="43" y="418"/>
      <point x="43" y="419" type="curve" smooth="yes"/>
      <point x="43" y="428"/>
      <point x="51" y="438"/>
      <point x="63" y="445" type="curve" smooth="yes"/>
      <point x="88" y="465" type="line" smooth="yes"/>
      <point x="113" y="477"/>
      <point x="123" y="484"/>
      <point x="137" y="484" type="curve" smooth="yes"/>
      <point x="153" y="484"/>
      <point x="161" y="473"/>
      <point x="161" y="454" type="curve" smooth="yes"/>
    </contour>
  </outline>
</glyph>
<glyph name="macron.case" format="2">
  <outline>
    <contour>
      <point x="78" y="750" type="curve" smooth="yes"/>
      <point x="78" y="740"/>
      <point x="86" y="732"/>
      <point x="100" y="732" type="curve" smooth="yes"/>
      <point x="312" y="732" type="line" smooth="yes"/>
      <point x="326" y="732"/>
      <point x="335" y="740"/>
      <point x="335" y="750" type="curve" smooth="yes"/>
      <point x="335" y="762"/>
      <point x="325" y="770"/>
      <point x="312" y="770" type="curve" smooth="yes"/>
      <point x="101" y="770" type="line" smooth="yes"/>
      <point x="88" y="770"/>
      <point x="78" y="762"/>
    </contour>
  </outline>
</glyph>
<glyph name="n.alt" format="2">
  <advance width="571"/>
  <outline>
    <contour>
      <point x="134" y="339" type="line" smooth="yes"/>
      <point x="161" y="363" type="line" smooth="yes"/>
      <point x="221" y="417"/>
      <point x="275.0" y="441.0"/>
      <point x="320" y="441" type="curve" smooth="yes"/>
      <point x="386.0" y="441.0"/>
      <point x="431" y="400.0"/>
      <point x="431" y="324" type="curve" smooth="yes"/>
      <point x="431" y="61" type="line" smooth="yes"/>
      <point x="431" y="45"/>
      <point x="420" y="36"/>
      <point x="402" y="32" type="curve" smooth="yes"/>
      <point x="372" y="26" type="line" smooth="yes"/>
      <point x="360" y="24"/>
      <point x="353" y="20"/>
      <point x="353" y="12" type="curve" smooth="yes"/>
      <point x="353" y="4"/>
      <point x="359" y="0"/>
      <point x="370" y="0" type="curve" smooth="yes"/>
      <point x="527" y="0" type="line" smooth="yes"/>
      <point x="538" y="0"/>
      <point x="544" y="4"/>
      <point x="544" y="12" type="curve" smooth="yes"/>
      <point x="544" y="20"/>
      <point x="537" y="24"/>
      <point x="525" y="26" type="curve" smooth="yes"/>
      <point x="495" y="32" type="line" smooth="yes"/>
      <point x="477" y="36"/>
      <point x="466" y="45"/>
      <point x="466" y="61" type="curve" smooth="yes"/>
      <point x="466" y="334" type="line" smooth="yes"/>
      <point x="466" y="416.0"/>
      <point x="406.0" y="470.0"/>
      <point x="324" y="470" type="curve" smooth="yes"/>
      <point x="268.0" y="470.0"/>
      <point x="208" y="439"/>
      <point x="147" y="384" type="curve" smooth="yes"/>
      <point x="117" y="357" type="line"/>
    </contour>
    <component base="dotlessi"/>
  </outline>
</glyph>
<glyph name="ring.case" format="2">
  <outline>
    <contour>
      <point x="156" y="458" type="curve" smooth="yes"/>
      <point x="111" y="458"/>
      <point x="87" y="485"/>
      <point x="87" y="529" type="curve" smooth="yes"/>
      <point x="87" y="572"/>
      <point x="113" y="599"/>
      <point x="156" y="599" type="curve" smooth="yes"/>
      <point x="198" y="599"/>
      <point x="226" y="572"/>
      <point x="226" y="529" type="curve" smooth="yes"/>
      <point x="226" y="485"/>
      <point x="200" y="458"/>
    </contour>
    <contour>
      <point x="157" y="485" type="curve" smooth="yes"/>
      <point x="187" y="485"/>
      <point x="203" y="504"/>
      <point x="203" y="529" type="curve" smooth="yes"/>
      <point x="203" y="557"/>
      <point x="185" y="572"/>
      <point x="155" y="572" type="curve" smooth="yes"/>
      <point x="127" y="572"/>
      <point x="112" y="557"/>
      <point x="112" y="529" type="curve" smooth="yes"/>
      <point x="112" y="502"/>
      <point x="127" y="485"/>
    </contour>
  </outline>
</glyph>
<glyph name="s.alt" format="2">
  <advance width="406"/>
  <outline>
    <contour>
      <point x="178" y="440" type="curve" smooth="yes"/>
      <point x="255" y="440"/>
      <point x="302" y="406"/>
      <point x="331" y="346" type="curve" smooth="yes"/>
      <point x="340" y="327"/>
      <point x="345" y="321"/>
      <point x="354" y="323" type="curve" smooth="yes"/>
      <point x="367" y="326"/>
      <point x="362" y="345"/>
      <point x="357" y="360" type="curve" smooth="yes"/>
      <point x="322" y="461" type="line" smooth="yes"/>
      <point x="320" y="467"/>
      <point x="314" y="470"/>
      <point x="308" y="470" type="curve" smooth="yes"/>
      <point x="298" y="470"/>
      <point x="291" y="453"/>
      <point x="276" y="453" type="curve" smooth="yes"/>
      <point x="257" y="453"/>
      <point x="237" y="470"/>
      <point x="182" y="470" type="curve" smooth="yes"/>
      <point x="96" y="470"/>
      <point x="46" y="417"/>
      <point x="46" y="354" type="curve" smooth="yes"/>
      <point x="46" y="293"/>
      <point x="86" y="242"/>
      <point x="193" y="218" type="curve" smooth="yes"/>
      <point x="289" y="196"/>
      <point x="329" y="159"/>
      <point x="329" y="114" type="curve" smooth="yes"/>
      <point x="329" y="60"/>
      <point x="288" y="24"/>
      <point x="220" y="24" type="curve" smooth="yes"/>
      <point x="164" y="24"/>
      <point x="97" y="56"/>
      <point x="55" y="127" type="curve" smooth="yes"/>
      <point x="50" y="135"/>
      <point x="44" y="140"/>
      <point x="37" y="139" type="curve" smooth="yes"/>
      <point x="27" y="137"/>
      <point x="23" y="129"/>
      <point x="30" y="114" type="curve" smooth="yes"/>
      <point x="77" y="9" type="line" smooth="yes"/>
      <point x="81" y="-1"/>
      <point x="86" y="-6"/>
      <point x="94" y="-6" type="curve" smooth="yes"/>
      <point x="107" y="-6"/>
      <point x="112" y="12"/>
      <point x="127" y="12" type="curve" smooth="yes"/>
      <point x="145" y="12"/>
      <point x="167" y="-5"/>
      <point x="215" y="-5" type="curve" smooth="yes"/>
      <point x="304" y="-5"/>
      <point x="364" y="48"/>
      <point x="364" y="115" type="curve" smooth="yes"/>
      <point x="364" y="180"/>
      <point x="320" y="226"/>
      <point x="206" y="252" type="curve" smooth="yes"/>
      <point x="113" y="273"/>
      <point x="81" y="310"/>
      <point x="81" y="357" type="curve" smooth="yes"/>
      <point x="81" y="406"/>
      <point x="122" y="440"/>
    </contour>
  </outline>
</glyph>
<glyph name="three.case" format="2">
  <advance width="566"/>
  <outline>
    <contour>
      <point x="269" y="345" type="line"/>
      <point x="487" y="630" type="line" smooth="yes"/>
      <point x="504" y="653"/>
      <point x="506" y="653"/>
      <point x="506" y="660" type="curve" smooth="yes"/>
      <point x="506" y="674"/>
      <point x="486" y="684"/>
      <point x="486" y="684" type="curve" smooth="yes"/>
      <point x="122" y="684" type="line" smooth="yes"/>
      <point x="110" y="684"/>
      <point x="108" y="662"/>
      <point x="104" y="633" type="curve" smooth="yes"/>
      <point x="96" y="562" type="line" smooth="yes"/>
      <point x="94" y="541"/>
      <point x="102" y="529"/>
      <point x="110" y="529" type="curve" smooth="yes"/>
      <point x="126" y="529"/>
      <point x="139" y="545"/>
      <point x="147" y="563" type="curve" smooth="yes"/>
      <point x="156" y="583" type="line" smooth="yes"/>
      <point x="171" y="613"/>
      <point x="190" y="624"/>
      <point x="219" y="624" type="curve" smooth="yes"/>
      <point x="398" y="624" type="line"/>
      <point x="400" y="608" type="line"/>
      <point x="211" y="360" type="line" smooth="yes"/>
      <point x="210" y="357"/>
      <point x="211" y="353"/>
      <point x="211" y="349" type="curve" smooth="yes"/>
      <point x="211" y="336"/>
      <point x="219" y="326"/>
      <point x="231" y="326" type="curve" smooth="yes"/>
      <point x="271" y="326" type="line" smooth="yes"/>
      <point x="386" y="326"/>
      <point x="464" y="267"/>
      <point x="464" y="155" type="curve" smooth="yes"/>
      <point x="464" y="80"/>
      <point x="407" y="39"/>
      <point x="325" y="37" type="curve" smooth="yes"/>
      <point x="235" y="36"/>
      <point x="170" y="70"/>
      <point x="170" y="113" type="curve" smooth="yes"/>
      <point x="170" y="129" type="line" smooth="yes"/>
      <point x="170" y="159"/>
      <point x="147" y="179"/>
      <point x="118" y="179" type="curve" smooth="yes"/>
      <point x="101" y="179"/>
      <point x="84" y="162"/>
      <point x="84" y="138" type="curve" smooth="yes"/>
      <point x="84" y="54"/>
      <point x="150" y="-16"/>
      <point x="262" y="-16" type="curve" smooth="yes"/>
      <point x="392" y="-16"/>
      <point x="508" y="67"/>
      <point x="508" y="208" type="curve" smooth="yes"/>
      <point x="508" y="319"/>
      <point x="426" y="374"/>
      <point x="296" y="374" type="curve" smooth="yes"/>
      <point x="294" y="374"/>
      <point x="276" y="374"/>
      <point x="274" y="374" type="curve"/>
    </contour>
  </outline>
</glyph>
